<svg width="200" height="200" viewBox="0 0 200 200" fill="none" xmlns="http://www.w3.org/2000/svg">
<g clip-path="url(#clip0_75_32)">
<path d="M7.14292 104.762C6.51145 104.762 5.90584 105.013 5.45933 105.459C5.01281 105.906 4.76196 106.511 4.76196 107.143V164.286C4.76196 168.224 7.96672 171.429 11.9048 171.429H59.5239C60.1553 171.429 60.7609 171.178 61.2075 170.731C61.654 170.285 61.9048 169.679 61.9048 169.048C61.9048 168.416 61.654 167.811 61.2075 167.364C60.7609 166.918 60.1553 166.667 59.5239 166.667H11.9048C11.2734 166.667 10.6677 166.416 10.2212 165.969C9.77472 165.523 9.52387 164.917 9.52387 164.286V107.143C9.52387 106.511 9.27302 105.906 8.8265 105.459C8.37999 105.013 7.77438 104.762 7.14292 104.762ZM192.857 104.762C192.226 104.762 191.62 105.013 191.174 105.459C190.727 105.906 190.476 106.511 190.476 107.143V164.286C190.476 164.917 190.225 165.523 189.779 165.969C189.332 166.416 188.727 166.667 188.095 166.667H88.0953C87.4638 166.667 86.8582 166.918 86.4117 167.364C85.9652 167.811 85.7143 168.416 85.7143 169.048C85.7143 169.679 85.9652 170.285 86.4117 170.731C86.8582 171.178 87.4638 171.429 88.0953 171.429H188.095C192.033 171.429 195.238 168.224 195.238 164.286V107.143C195.238 106.511 194.987 105.906 194.541 105.459C194.094 105.013 193.489 104.762 192.857 104.762ZM85.7143 30.9525C85.7143 31.584 85.9652 32.1896 86.4117 32.6361C86.8582 33.0826 87.4638 33.3334 88.0953 33.3334H188.095C188.727 33.3334 189.332 33.5843 189.779 34.0308C190.225 34.4773 190.476 35.0829 190.476 35.7144V78.3715C190.476 79.003 190.727 79.6086 191.174 80.0551C191.62 80.5016 192.226 80.7525 192.857 80.7525C193.489 80.7525 194.094 80.5016 194.541 80.0551C194.987 79.6086 195.238 79.003 195.238 78.3715V35.7144C195.238 31.7763 192.033 28.5715 188.095 28.5715H88.0953C87.4638 28.5715 86.8582 28.8224 86.4117 29.2689C85.9652 29.7154 85.7143 30.321 85.7143 30.9525ZM11.9048 28.5715C7.96672 28.5715 4.76196 31.7763 4.76196 35.7144V78.3715C4.76196 79.003 5.01281 79.6086 5.45933 80.0551C5.90584 80.5016 6.51145 80.7525 7.14292 80.7525C7.77438 80.7525 8.37999 80.5016 8.8265 80.0551C9.27302 79.6086 9.52387 79.003 9.52387 78.3715V35.7144C9.52387 35.0829 9.77472 34.4773 10.2212 34.0308C10.6677 33.5843 11.2734 33.3334 11.9048 33.3334H59.5239C60.1553 33.3334 60.7609 33.0826 61.2075 32.6361C61.654 32.1896 61.9048 31.584 61.9048 30.9525C61.9048 30.321 61.654 29.7154 61.2075 29.2689C60.7609 28.8224 60.1553 28.5715 59.5239 28.5715H11.9048Z" fill="#96C121"/>
<path d="M89.5 90.2762H197.619C198.251 90.2762 198.856 90.5271 199.303 90.9736C199.749 91.4201 200 92.0257 200 92.6572C200 93.2887 199.749 93.8943 199.303 94.3408C198.856 94.7873 198.251 95.0381 197.619 95.0381H85.3762M76.1905 69.5V26.1905C76.1905 25.5591 75.9396 24.9535 75.4931 24.5069C75.0466 24.0604 74.441 23.8096 73.8095 23.8096C73.1781 23.8096 72.5724 24.0604 72.1259 24.5069C71.6794 24.9535 71.4286 25.5591 71.4286 26.1905V73.5M46.8857 90.2762H2.38095C1.74948 90.2762 1.14388 90.5271 0.697365 90.9736C0.25085 91.4201 0 92.0257 0 92.6572C0 93.2887 0.25085 93.8943 0.697365 94.3408C1.14388 94.7873 1.74948 95.0381 2.38095 95.0381C2.38095 95.0381 48.7286 94.2096 46.8857 95.0381M72.1259 127.5L71.4286 173.81C71.4286 174.441 71.6794 175.047 72.1259 175.493C72.5724 175.94 73.1781 176.191 73.8095 176.191C74.441 176.191 75.0466 175.94 75.4931 175.493C75.9396 175.047 76.1905 174.441 76.1905 173.81V119.271" stroke="#96C121"/>
<g clip-path="url(#clip1_75_32)">
<path d="M119.586 45.9169L118.236 47.9673L119.261 46.9C120.686 47.4898 119.361 48.7538 118.961 49.147C120.986 48.2763 119.411 46.9561 119.586 45.9169Z" fill="white"/>
<path d="M68.048 127.08H67.9299C64.8589 126.917 62.9395 121.478 59.839 111.852C59.4551 110.655 59.0417 109.404 58.6283 108.126C54.6123 95.9706 48.8542 81.2317 39.9365 75.0588C39.6412 74.8956 39.5822 74.5421 39.7593 74.2701C39.907 74.0526 40.2023 73.971 40.468 74.0526C40.5861 74.0798 43.48 74.8412 48.5294 78.2948C56.4136 83.7335 63.6482 91.81 68.55 97.9829C69.3177 95.3995 71.6505 88.9275 78.1764 79.6817C83.0782 72.6929 89.3678 65.5954 96.8091 58.5251C106.111 49.7416 117.332 41.0125 130.088 32.5825C130.354 32.3921 130.738 32.4737 130.944 32.7184C131.122 32.9632 131.092 33.2895 130.826 33.4799C130.797 33.507 126.486 36.6071 120.285 42.6169C111.78 50.9653 104.25 60.1295 97.8426 69.9464C89.7812 82.265 82.1628 98.418 74.5443 119.33L74.5148 119.357C72.0639 124.687 70.0559 127.08 68.048 127.08ZM43.8048 76.7719C51.2461 84.0326 56.2069 96.9495 59.8094 107.827C60.2228 109.105 60.6362 110.329 61.0201 111.552C63.3824 118.895 65.6266 125.829 67.9889 125.965C68.9634 126.019 70.7056 124.85 73.3927 118.976C81.0112 97.9829 88.6887 81.7484 96.7796 69.3753C103.246 59.4769 110.835 50.2311 119.428 41.8283C120.078 41.2028 120.698 40.6046 121.289 40.0607C112.961 45.9889 105.107 52.4065 97.7245 59.3137C90.3128 66.3024 84.1117 73.3456 79.2394 80.2527C72.5954 89.6617 69.9083 96.9223 69.4358 99.4513C69.4063 99.6689 69.1996 99.8592 68.9634 99.9136C68.7271 99.968 68.4614 99.8864 68.3137 99.6961C63.471 93.5232 56.0002 84.9844 47.8502 79.3281C46.551 78.3764 45.2222 77.5334 43.8048 76.7719Z" fill="white"/>
<path d="M115.738 49.2865C114.688 49.3988 115.188 50.4381 115.688 50.6909C115.663 50.2134 116.238 49.5393 115.738 49.2865Z" fill="white"/>
<path d="M121.264 50.6906L119.914 52.741L120.939 51.6736C122.364 52.2635 121.039 53.5275 120.639 53.9207C122.664 53.05 121.089 51.7298 121.264 50.6906Z" fill="#CBE6B0"/>
<path d="M117.416 54.0602C116.366 54.1725 116.866 55.2118 117.366 55.4646C117.341 54.9871 117.916 54.313 117.416 54.0602Z" fill="#CBE6B0"/>
<path d="M121.504 55.4642L120.154 57.5147L121.179 56.4473C122.604 57.0372 121.278 58.3011 120.879 58.6944C122.904 57.8236 121.329 56.5035 121.504 55.4642Z" fill="#E0EED5"/>
<path d="M117.655 58.8339C116.605 58.9462 117.105 59.9855 117.605 60.2383C117.58 59.7608 118.155 59.0867 117.655 58.8339Z" fill="#E0EED5"/>
<path d="M70.1265 99.088C70.4266 98.8352 70.6766 98.498 70.9515 98.6384C70.7514 98.1891 70.5515 98.0487 70.1265 99.088Z" fill="white"/>
<path d="M70.9265 98.6665L71.0263 98.9476V98.6949L70.9265 98.6665Z" fill="white"/>
<path d="M91.3623 85.2653C91.3122 83.861 92.0373 83.6926 92.3372 82.5971L93.6373 83.0183C94.0122 81.951 93.1124 81.9229 93.1373 80.8556C94.4123 80.6871 95.2124 78.5803 95.5624 78.2714C96.1873 78.496 95.8622 79.1983 96.0372 79.5917C96.5372 78.3275 95.6374 77.4006 96.6873 76.1929L96.9373 76.4456C98.6123 72.4571 102.662 69.6201 106.037 66.5866C105.762 66.6709 105.687 66.362 105.462 66.1935C109.187 63.1319 114.387 61.615 117.237 57.149C114.787 58.0759 109.862 57.9355 108.137 61.1376C106.787 60.5196 106.037 62.6543 105.112 61.615C101.512 63.2162 101.037 65.8001 98.2623 68.2159C97.7122 68.3563 97.5373 67.6259 97.0873 67.2047C97.7623 66.4182 98.3374 65.4351 99.1372 64.7889C98.5373 64.9296 97.9373 65.1543 97.3623 65.4351C97.6123 64.2835 99.5622 63.7216 99.1372 62.5139C97.4874 65.0139 93.7123 67.2608 92.9122 70.0136C93.9372 69.564 94.7622 68.3843 95.8124 67.6259C96.4874 67.6259 97.3373 67.317 97.6624 67.907C95.9873 71.7551 93.1622 72.7663 91.2624 76.1648C90.7624 76.9513 89.8872 77.8221 89.3124 77.5129C89.5624 76.8952 88.8623 76.8952 88.9874 76.3052C88.5123 77.6817 90.5622 77.9906 89.1624 79.2264L87.6872 77.5691C88.9622 79.704 86.0623 79.3106 86.3372 81.333C85.3624 81.2207 85.4873 80.1252 86.0374 79.1702C85.0623 79.9568 86.0122 80.8556 85.4374 81.6421L84.4623 79.704C85.2874 81.6702 83.1624 81.0803 82.3374 81.2487C82.6624 81.586 84.1123 81.951 83.3122 82.9903C82.8122 83.3272 82.5874 82.8218 82.2873 82.7656C82.6123 83.1026 83.0373 83.9453 82.7123 84.7599C82.1123 84.5633 82.1873 83.7206 81.6873 83.3272C81.4124 83.9453 81.2872 84.5072 80.6122 84.6756C80.5123 86.0238 81.3872 85.0968 81.6372 86.0799C80.4622 87.4845 79.7373 85.1249 78.3123 85.0407C78.2124 83.3272 78.7622 81.4453 78.7874 80.5184L77.9123 83.2711C77.3624 82.7375 75.9872 84.3384 76.0623 82.5971C74.1624 84.816 73.3373 88.355 73.0123 91.1358C73.3623 90.8831 73.6873 90.4899 74.0622 90.7427C73.9622 92.2031 73.1873 91.6977 72.6122 91.7538C72.6873 92.9335 73.8623 93.2985 74.4874 94.2535C72.7623 95.7985 73.3373 96.3323 71.4123 97.512L72.5873 97.8208C71.2874 98.6916 73.0123 99.5062 71.9372 100.545C71.6623 100.545 71.5123 99.9274 71.3622 99.4501C71.4123 100.742 70.0623 100.209 70.1872 101.5L69.1373 100.18C68.8873 101.107 68.9873 102.596 67.9623 101.781C68.9623 103.804 67.7123 106.5 68.1123 108.719L67.1123 108.354C67.6874 109.056 67.3623 110.039 67.2123 111.022C64.7374 106.191 61.3624 101.809 57.3373 99.1409C56.5873 98.2985 54.3873 98.5512 53.0374 98.1859C53.9123 99.5905 54.5374 99.1128 55.6122 100.265C56.1122 101.444 55.3373 102.877 55.2373 104.225L55.8124 102.989C57.5123 103.495 55.9372 104.253 57.6372 104.422L56.0873 105.686C57.1372 105.349 57.0873 106.781 56.8623 107.455L58.1624 106.978C58.0622 108.242 58.1123 108.944 57.1873 109.899L58.1873 109.141C57.6873 109.899 60.0373 112.399 57.6624 112.455C58.0373 112.567 58.6873 112.483 58.8374 113.129L57.7873 113.831C58.4373 114.505 59.0874 115.32 58.5622 115.854C58.0874 115.545 57.5624 115.657 57.0123 115.769C58.3374 119.393 60.9374 114.646 62.4372 117.876L61.6874 118.185L62.8123 118.662L62.2373 120.011C63.7373 120.067 64.1122 121.218 64.4622 122.707C64.9373 123.887 65.1372 124.898 66.1123 126.218C66.7123 127.313 70.3624 128.381 72.0624 126.92C73.8374 125.628 73.2872 125.656 73.5873 125.235C73.8374 124.589 74.0123 123.915 74.0373 123.213C74.3623 121.387 75.9122 121.05 76.1373 119L74.9124 118.887C76.3372 117.735 77.9372 112.961 80.9373 112.483C80.2374 111.079 80.6623 112.539 79.7124 112.314C78.8874 109.674 80.8623 110.011 81.8124 109.028C81.5373 107.511 81.1123 109.955 80.4123 109C81.8124 107.146 79.3123 106.837 80.7623 104.478C81.4874 104.45 81.0123 105.264 81.4124 105.686C80.7623 103.551 82.3122 100.349 83.1123 97.7366C84.8873 95.0962 87.1374 91.22 89.6624 88.8326L89.3124 88.5238C91.0124 87.9899 90.9623 86.1361 92.2624 85.0968L91.3623 85.2653Z" fill="#96C121"/>
<path d="M89.325 86.1163C89.2749 84.712 90 84.5435 90.2998 83.4481L91.6 83.8693C91.9749 82.802 91.075 82.7739 91.1 81.7066C92.3749 81.5381 93.175 79.4312 93.525 79.1223C94.1499 79.347 93.8249 80.0493 93.9999 80.4427C94.4999 79.1785 93.6 78.2516 94.6499 77.0438L94.8999 77.2966C96.575 73.308 100.625 70.4711 104 67.4376C103.725 67.5218 103.65 67.213 103.425 67.0445C107.15 63.9829 112.35 62.466 115.2 58C112.75 58.9269 107.825 58.7865 106.1 61.9885C104.75 61.3706 104 63.5052 103.075 62.466C99.4748 64.0671 99 66.6511 96.225 69.0668C95.6749 69.2072 95.4999 68.4768 95.05 68.0556C95.725 67.2691 96.3 66.286 97.0999 65.6399C96.4999 65.7806 95.9 66.0052 95.3249 66.286C95.5749 65.1345 97.5249 64.5726 97.0999 63.3648C95.45 65.8648 91.675 68.1118 90.8749 70.8645C91.8998 70.4149 92.7249 69.2353 93.775 68.4768C94.45 68.4768 95.3 68.168 95.625 68.7579C93.95 72.606 91.1249 73.6172 89.225 77.0158C88.725 77.8023 87.8499 78.6731 87.2751 78.3639C87.5251 77.7461 86.8249 77.7461 86.95 77.1562C86.4749 78.5327 88.5249 78.8415 87.125 80.0773L85.6499 78.4201C86.9249 80.555 84.025 80.1616 84.2999 82.1839C83.325 82.0716 83.4499 80.9762 84 80.0212C83.0249 80.8077 83.9749 81.7066 83.4001 82.4931L82.425 80.555C83.25 82.5212 81.1251 81.9312 80.3 82.0997C80.6251 82.4369 82.075 82.802 81.2749 83.8412C80.7749 84.1782 80.55 83.6727 80.2499 83.6166C80.5749 83.9535 80.9999 84.7962 80.6749 85.6108C80.0749 85.4143 80.15 84.5716 79.6499 84.1782C79.375 84.7962 79.2499 85.3581 78.5749 85.5266C78.4749 86.8747 79.3498 85.9478 79.5998 86.9309C78.4248 88.3355 77.7 85.9759 76.275 85.8916C76.175 84.1782 76.7249 82.2962 76.7501 81.3693L75.8749 84.122C75.325 83.5885 73.9499 85.1894 74.0249 83.4481C72.125 85.667 71.3 89.2059 70.9749 91.9867C71.3249 91.734 71.6499 91.3409 72.0248 91.5936C71.9249 93.0541 71.1499 92.5486 70.5749 92.6048C70.6499 93.7844 71.8249 94.1495 72.4501 95.1045C70.7249 96.6495 71.3 97.1833 69.3749 98.3629L70.55 98.6718C69.2501 99.5426 70.9749 100.357 69.8999 101.396C69.625 101.396 69.4749 100.778 69.3249 100.301C69.3749 101.593 68.025 101.059 68.1498 102.351L67.1 101.031C66.8499 101.958 66.9499 103.447 65.9249 102.632C66.925 104.655 65.6749 107.351 66.075 109.57L65.075 109.205C65.65 109.907 65.325 110.89 65.1749 111.873C62.7 107.042 59.325 102.66 55.3 99.9918C54.55 99.1494 52.35 99.4022 51 99.0368C51.8749 100.441 52.5 99.9638 53.5749 101.116C54.0749 102.295 53.2999 103.728 53.2 105.076L53.775 103.84C55.475 104.346 53.8999 105.104 55.5999 105.273L54.0499 106.536C55.0998 106.2 55.05 107.632 54.8249 108.306L56.125 107.828C56.0248 109.093 56.0749 109.795 55.1499 110.75L56.15 109.991C55.6499 110.75 58 113.25 55.625 113.306C55.9999 113.418 56.65 113.334 56.8 113.98L55.7499 114.682C56.4 115.356 57.05 116.171 56.5249 116.705C56.05 116.395 55.5251 116.508 54.9749 116.62C56.3 120.244 58.9 115.497 60.3998 118.727L59.6501 119.036L60.775 119.513L60.1999 120.862C61.7 120.918 62.0749 122.069 62.4248 123.558C62.8999 124.738 63.0998 125.749 64.0749 127.069C64.6749 128.164 68.3251 129.232 70.025 127.771C71.8 126.479 71.2499 126.507 71.55 126.086C71.8 125.44 71.975 124.766 71.9999 124.064C72.3249 122.238 73.8748 121.901 74.0999 119.85L72.8751 119.738C74.2998 118.586 75.8998 113.812 78.8999 113.334C78.2 111.93 78.625 113.39 77.6751 113.165C76.85 110.525 78.8249 110.862 79.7751 109.879C79.4999 108.362 79.0749 110.806 78.375 109.851C79.7751 107.997 77.275 107.688 78.7249 105.329C79.45 105.301 78.975 106.115 79.375 106.536C78.7249 104.402 80.2748 101.2 81.075 98.5875C82.85 95.9472 85.1 92.071 87.625 89.6836L87.2751 89.3747C88.975 88.8409 88.9249 86.987 90.225 85.9478L89.325 86.1163Z" fill="white"/>
<path d="M91.325 79.1163C91.2749 77.712 92 77.5435 92.2998 76.4481L93.6 76.8693C93.9749 75.802 93.075 75.7739 93.1 74.7066C94.3749 74.5381 95.175 72.4312 95.525 72.1223C96.1499 72.347 95.8249 73.0493 95.9999 73.4427C96.4999 72.1785 95.6 71.2516 96.6499 70.0438L96.8999 70.2966C98.575 66.308 102.625 63.4711 106 60.4376C105.725 60.5218 105.65 60.213 105.425 60.0445C109.15 56.9829 114.35 55.466 117.2 51C114.75 51.9269 109.825 51.7865 108.1 54.9885C106.75 54.3706 106 56.5052 105.075 55.466C101.475 57.0671 101 59.6511 98.225 62.0668C97.6749 62.2072 97.4999 61.4768 97.05 61.0556C97.725 60.2691 98.3 59.286 99.0999 58.6399C98.4999 58.7806 97.9 59.0052 97.3249 59.286C97.5749 58.1345 99.5249 57.5726 99.0999 56.3648C97.45 58.8648 93.675 61.1118 92.8749 63.8645C93.8998 63.4149 94.7249 62.2353 95.775 61.4768C96.45 61.4768 97.3 61.168 97.625 61.7579C95.95 65.606 93.1249 66.6172 91.225 70.0158C90.725 70.8023 89.8499 71.6731 89.2751 71.3639C89.5251 70.7461 88.8249 70.7461 88.95 70.1562C88.4749 71.5327 90.5249 71.8415 89.125 73.0773L87.6499 71.4201C88.9249 73.555 86.025 73.1616 86.2999 75.1839C85.325 75.0716 85.4499 73.9762 86 73.0212C85.0249 73.8077 85.9749 74.7066 85.4001 75.4931L84.425 73.555C85.25 75.5212 83.1251 74.9312 82.3 75.0997C82.6251 75.4369 84.075 75.802 83.2749 76.8412C82.7749 77.1782 82.55 76.6727 82.2499 76.6166C82.5749 76.9535 82.9999 77.7962 82.6749 78.6108C82.0749 78.4143 82.15 77.5716 81.6499 77.1782C81.375 77.7962 81.2499 78.3581 80.5749 78.5266C80.4749 79.8747 81.3498 78.9478 81.5998 79.9309C80.4248 81.3355 79.7 78.9759 78.275 78.8916C78.175 77.1782 78.7249 75.2962 78.7501 74.3693L77.8749 77.122C77.325 76.5885 75.9499 78.1894 76.0249 76.4481C74.125 78.667 73.3 82.2059 72.9749 84.9867C73.3249 84.734 73.6499 84.3409 74.0248 84.5936C73.9249 86.0541 73.1499 85.5486 72.5749 85.6048C72.6499 86.7844 73.8249 87.1495 74.4501 88.1045C72.7249 89.6495 73.3 90.1833 71.3749 91.3629L72.55 91.6718C71.2501 92.5426 72.9749 93.3572 71.8999 94.3964C71.625 94.3964 71.4749 93.7784 71.3249 93.301C71.3749 94.593 70.025 94.0595 70.1498 95.3514L69.1 94.0314C68.8499 94.958 68.9499 96.4468 67.9249 95.6322C68.925 97.6546 67.6749 100.351 68.075 102.57L67.075 102.205C67.65 102.907 67.325 103.89 67.1749 104.873C64.7 100.042 61.325 95.6603 57.3 92.9918C56.55 92.1494 54.35 92.4022 53 92.0368C53.8749 93.4414 54.5 92.9638 55.5749 94.1156C56.0749 95.2953 55.2999 96.7276 55.2 98.076L55.775 96.84C57.475 97.3457 55.8999 98.1041 57.5999 98.2726L56.0499 99.5365C57.0998 99.1995 57.05 100.632 56.8249 101.306L58.125 100.828C58.0248 102.093 58.0749 102.795 57.1499 103.75L58.15 102.991C57.6499 103.75 60 106.25 57.625 106.306C57.9999 106.418 58.65 106.334 58.8 106.98L57.7499 107.682C58.4 108.356 59.05 109.171 58.5249 109.705C58.05 109.395 57.5251 109.508 56.9749 109.62C58.3 113.244 60.9 108.497 62.3998 111.727L61.6501 112.036L62.775 112.513L62.1999 113.862C63.7 113.918 64.0749 115.069 64.4248 116.558C64.8999 117.738 65.0998 118.749 66.0749 120.069C66.6749 121.164 70.3251 122.232 72.025 120.771C73.8 119.479 73.2499 119.507 73.55 119.086C73.8 118.44 73.975 117.766 73.9999 117.064C74.3249 115.238 75.8748 114.901 76.0999 112.85L74.8751 112.738C76.2998 111.586 77.8998 106.812 80.8999 106.334C80.2 104.93 80.625 106.39 79.6751 106.165C78.85 103.525 80.8249 103.862 81.7751 102.879C81.4999 101.362 81.0749 103.806 80.375 102.851C81.7751 100.997 79.275 100.688 80.7249 98.3288C81.45 98.3007 80.975 99.1153 81.375 99.5365C80.7249 97.4018 82.2748 94.1999 83.075 91.5876C84.85 88.9472 87.1 85.071 89.625 82.6836L89.2751 82.3747C90.975 81.8409 90.9249 79.987 92.225 78.9478L91.325 79.1163Z" fill="#93C03D"/>
<path d="M89.2051 81.0533C89.155 79.649 89.8801 79.4805 90.18 78.3851L91.4801 78.8063C91.855 77.739 90.9552 77.7109 90.9801 76.6436C92.255 76.4751 93.0552 74.3682 93.4051 74.0594C94.03 74.284 93.705 74.9863 93.88 75.3797C94.38 74.1155 93.4802 73.1886 94.53 71.9809L94.7801 72.2336C96.4551 68.2451 100.505 65.4081 103.88 62.3746C103.605 62.4588 103.53 62.15 103.305 61.9815C107.03 58.9199 112.23 57.403 115.08 52.937C112.63 53.8639 107.705 53.7235 105.98 56.9256C104.63 56.3076 103.88 58.4423 102.955 57.403C99.355 59.0041 98.8801 61.5881 96.1051 64.0038C95.555 64.1442 95.38 63.4139 94.9301 62.9927C95.6051 62.2061 96.1801 61.223 96.98 60.5769C96.38 60.7176 95.7801 60.9422 95.205 61.223C95.455 60.0715 97.405 59.5096 96.98 58.3019C95.3302 60.8018 91.5551 63.0488 90.755 65.8015C91.78 65.352 92.605 64.1723 93.6551 63.4139C94.3301 63.4139 95.1801 63.105 95.5051 63.6949C93.8301 67.5431 91.005 68.5542 89.1051 71.9528C88.6051 72.7393 87.73 73.6101 87.1552 73.3009C87.4052 72.6831 86.705 72.6831 86.8301 72.0932C86.3551 73.4697 88.405 73.7785 87.0051 75.0144L85.53 73.3571C86.805 75.492 83.9051 75.0986 84.18 77.1209C83.2052 77.0086 83.33 75.9132 83.8802 74.9582C82.9051 75.7447 83.855 76.6436 83.2802 77.4301L82.3051 75.492C83.1301 77.4582 81.0052 76.8682 80.1801 77.0367C80.5052 77.3739 81.9551 77.739 81.155 78.7782C80.655 79.1152 80.4301 78.6098 80.13 78.5536C80.4551 78.8906 80.8801 79.7332 80.555 80.5478C79.9551 80.3513 80.0301 79.5086 79.5301 79.1152C79.2551 79.7332 79.13 80.2951 78.455 80.4636C78.3551 81.8117 79.23 80.8848 79.48 81.8679C78.305 83.2725 77.5801 80.9129 76.1551 80.8287C76.0551 79.1152 76.605 77.2333 76.6302 76.3063L75.755 79.059C75.2052 78.5255 73.83 80.1264 73.905 78.3851C72.0052 80.604 71.1801 84.143 70.8551 86.9237C71.205 86.671 71.5301 86.2779 71.905 86.5306C71.805 87.9911 71.0301 87.4856 70.455 87.5418C70.53 88.7214 71.7051 89.0865 72.3302 90.0415C70.6051 91.5865 71.1801 92.1203 69.2551 93.2999L70.4301 93.6088C69.1302 94.4796 70.8551 95.2942 69.78 96.3334C69.5051 96.3334 69.355 95.7154 69.205 95.238C69.2551 96.53 67.9051 95.9965 68.03 97.2884L66.9801 95.9684C66.7301 96.895 66.83 98.3838 65.8051 97.5692C66.8051 99.5916 65.5551 102.288 65.9551 104.507L64.9551 104.142C65.5301 104.844 65.2051 105.827 65.055 106.81C62.5801 101.979 59.2052 97.5973 55.1801 94.9289C54.4301 94.0864 52.2301 94.3392 50.8801 93.9738C51.755 95.3784 52.3802 94.9008 53.455 96.0526C53.955 97.2323 53.1801 98.6646 53.0801 100.013L53.6551 98.777C55.3551 99.2827 53.78 100.041 55.48 100.21L53.9301 101.474C54.98 101.137 54.9301 102.569 54.705 103.243L56.0052 102.765C55.905 104.03 55.9551 104.732 55.0301 105.687L56.0301 104.929C55.5301 105.687 57.8801 108.187 55.5051 108.243C55.88 108.355 56.5301 108.271 56.6802 108.917L55.63 109.619C56.2801 110.293 56.9302 111.108 56.405 111.642C55.9301 111.332 55.4052 111.445 54.8551 111.557C56.1801 115.181 58.7802 110.434 60.28 113.664L59.5302 113.973L60.6551 114.45L60.0801 115.799C61.5801 115.855 61.955 117.006 62.305 118.495C62.7801 119.675 62.98 120.686 63.9551 122.006C64.555 123.101 68.2052 124.169 69.9051 122.708C71.6801 121.416 71.13 121.444 71.4301 121.023C71.6801 120.377 71.8551 119.703 71.88 119.001C72.2051 117.175 73.755 116.838 73.9801 114.787L72.7552 114.675C74.18 113.523 75.78 108.749 78.7801 108.271C78.0801 106.867 78.5051 108.327 77.5552 108.102C76.7301 105.462 78.705 105.799 79.6552 104.816C79.38 103.299 78.955 105.743 78.2551 104.788C79.6552 102.934 77.1551 102.625 78.6051 100.266C79.3302 100.238 78.8551 101.052 79.2551 101.474C78.6051 99.3389 80.155 96.1369 80.9551 93.5246C82.7301 90.8842 84.9801 87.008 87.5051 84.6206L87.1552 84.3117C88.8551 83.7779 88.805 81.9241 90.1052 80.8848L89.2051 81.0533Z" fill="white"/>
<path d="M85.1302 78.2452C85.0801 76.8409 85.8051 76.6724 86.105 75.577L87.4051 75.9982C87.78 74.9309 86.8802 74.9028 86.9051 73.8355C88.1801 73.667 88.9802 71.5601 89.3302 71.2512C89.9551 71.4759 89.63 72.1782 89.805 72.5716C90.305 71.3074 89.4052 70.3805 90.4551 69.1727L90.7051 69.4255C92.3801 65.437 96.4301 62.6 99.8051 59.5665C99.5301 59.6507 99.4551 59.3419 99.23 59.1734C102.955 56.1118 108.155 54.5949 111.005 50.1289C108.555 51.0558 103.63 50.9154 101.905 54.1174C100.555 53.4995 99.8051 55.6341 98.8801 54.5949C95.28 56.196 94.8052 58.78 92.0302 61.1957C91.4801 61.3361 91.3051 60.6058 90.8552 60.1845C91.5302 59.398 92.1052 58.4149 92.9051 57.7688C92.3051 57.9095 91.7051 58.1341 91.1301 58.4149C91.3801 57.2634 93.3301 56.7015 92.9051 55.4937C91.2552 57.9937 87.4802 60.2407 86.68 62.9934C87.705 62.5438 88.5301 61.3642 89.5802 60.6058C90.2552 60.6058 91.1052 60.2969 91.4302 60.8868C89.7552 64.7349 86.9301 65.7461 85.0302 69.1447C84.5302 69.9312 83.655 70.802 83.0802 70.4928C83.3302 69.875 82.6301 69.875 82.7552 69.2851C82.2801 70.6616 84.33 70.9704 82.9302 72.2063L81.4551 70.549C82.73 72.6839 79.8301 72.2905 80.1051 74.3128C79.1302 74.2005 79.2551 73.1051 79.8052 72.1501C78.8301 72.9366 79.78 73.8355 79.2052 74.622L78.2301 72.6839C79.0552 74.6501 76.9302 74.0601 76.1052 74.2286C76.4302 74.5658 77.8802 74.9309 77.0801 75.9701C76.58 76.3071 76.3552 75.8016 76.0551 75.7455C76.3801 76.0824 76.8051 76.9251 76.4801 77.7397C75.8801 77.5432 75.9551 76.7005 75.4551 76.3071C75.1802 76.9251 75.0551 77.487 74.3801 77.6555C74.2801 79.0036 75.155 78.0767 75.405 79.0598C74.23 80.4644 73.5052 78.1048 72.0801 78.0205C71.9802 76.3071 72.5301 74.4252 72.5552 73.4982L71.6801 76.2509C71.1302 75.7174 69.755 77.3183 69.8301 75.577C67.9302 77.7959 67.1052 81.3349 66.7801 84.1156C67.1301 83.8629 67.4551 83.4698 67.83 83.7225C67.7301 85.183 66.9551 84.6775 66.3801 84.7337C66.4551 85.9133 67.6301 86.2784 68.2552 87.2334C66.5301 88.7784 67.1052 89.3122 65.1801 90.4918L66.3551 90.8007C65.0552 91.6715 66.7801 92.4861 65.7051 93.5253C65.4301 93.5253 65.2801 92.9073 65.13 92.4299C65.1801 93.7219 63.8301 93.1884 63.955 94.4803L62.9051 93.1603C62.6551 94.0869 62.7551 95.5757 61.7301 94.7611C62.7301 96.7835 61.4801 99.48 61.8802 101.699L60.8801 101.334C61.4552 102.036 61.1302 103.019 60.9801 104.002C58.5052 99.1711 55.1302 94.7892 51.1052 92.1208C50.3551 91.2783 48.1552 91.5311 46.8052 91.1657C47.6801 92.5703 48.3052 92.0927 49.38 93.2445C49.88 94.4242 49.1051 95.8565 49.0051 97.205L49.5802 95.9689C51.2801 96.4746 49.7051 97.233 51.405 97.4015L49.8551 98.6654C50.905 98.3284 50.8552 99.7608 50.6301 100.435L51.9302 99.9574C51.83 101.222 51.8801 101.924 50.9551 102.879L51.9551 102.12C51.4551 102.879 53.8051 105.379 51.4302 105.435C51.8051 105.547 52.4552 105.463 52.6052 106.109L51.5551 106.811C52.2051 107.485 52.8552 108.3 52.33 108.834C51.8552 108.524 51.3302 108.637 50.7801 108.749C52.1052 112.372 54.7052 107.626 56.205 110.856L55.4552 111.165L56.5802 111.642L56.0051 112.991C57.5052 113.047 57.8801 114.198 58.23 115.687C58.7051 116.867 58.905 117.878 59.8801 119.198C60.4801 120.293 64.1302 121.361 65.8302 119.9C67.6052 118.608 67.0551 118.636 67.3552 118.215C67.6052 117.569 67.7802 116.895 67.8051 116.193C68.1301 114.367 69.68 114.03 69.9051 111.979L68.6802 111.867C70.105 110.715 71.705 105.94 74.7051 105.463C74.0052 104.058 74.4302 105.519 73.4802 105.294C72.6552 102.654 74.6301 102.991 75.5802 102.008C75.3051 100.491 74.8801 102.935 74.1802 101.98C75.5802 100.126 73.0802 99.817 74.5301 97.4577C75.2552 97.4296 74.7801 98.2442 75.1802 98.6654C74.5301 96.5307 76.08 93.3288 76.8801 90.7165C78.6551 88.0761 80.9052 84.1999 83.4302 81.8125L83.0802 81.5036C84.7802 80.9698 84.7301 79.116 86.0302 78.0767L85.1302 78.2452Z" fill="#96C121"/>
<path d="M85.8494 78.8068C85.7993 77.4025 86.5244 77.2341 86.8242 76.1386L88.1244 76.5599C88.4993 75.4925 87.5994 75.4644 87.6244 74.3971C88.8993 74.2286 89.6995 72.1218 90.0494 71.8129C90.6743 72.0375 90.3493 72.7398 90.5243 73.1332C91.0243 71.8691 90.1244 70.9421 91.1743 69.7344L91.4243 69.9871C93.0994 65.9986 97.1493 63.1617 100.524 60.1281C100.249 60.2124 100.174 59.9035 99.9493 59.735C103.674 56.6734 108.874 55.1565 111.724 50.6906C109.274 51.6175 104.349 51.477 102.624 54.6791C101.274 54.0611 100.524 56.1958 99.5993 55.1565C95.9993 56.7577 95.5244 59.3416 92.7494 61.7574C92.1993 61.8978 92.0243 61.1674 91.5744 60.7462C92.2494 59.9597 92.8244 58.9766 93.6243 58.3305C93.0243 58.4711 92.4244 58.6958 91.8493 58.9766C92.0993 57.825 94.0493 57.2631 93.6243 56.0554C91.9744 58.5554 88.1994 60.8024 87.3993 63.5551C88.4242 63.1055 89.2493 61.9258 90.2994 61.1674C90.9744 61.1674 91.8244 60.8585 92.1494 61.4485C90.4744 65.2966 87.6493 66.3078 85.7494 69.7063C85.2494 70.4928 84.3743 71.3636 83.7995 71.0544C84.0495 70.4367 83.3493 70.4367 83.4744 69.8467C82.9993 71.2232 85.0493 71.5321 83.6494 72.7679L82.1743 71.1106C83.4493 73.2455 80.5494 72.8521 80.8243 74.8745C79.8494 74.7622 79.9743 73.6667 80.5244 72.7117C79.5493 73.4983 80.4993 74.3971 79.9245 75.1836L78.9494 73.2455C79.7744 75.2117 77.6495 74.6218 76.8244 74.7902C77.1495 75.1275 78.5994 75.4925 77.7993 76.5318C77.2993 76.8687 77.0744 76.3633 76.7743 76.3071C77.0994 76.6441 77.5244 77.4868 77.1993 78.3014C76.5994 78.1048 76.6744 77.2621 76.1744 76.8687C75.8994 77.4868 75.7743 78.0487 75.0993 78.2171C74.9994 79.5653 75.8743 78.6384 76.1243 79.6214C74.9493 81.026 74.2244 78.6664 72.7994 78.5822C72.6994 76.8687 73.2493 74.9868 73.2745 74.0599L72.3993 76.8126C71.8494 76.279 70.4743 77.8799 70.5493 76.1386C68.6494 78.3575 67.8244 81.8965 67.4994 84.6773C67.8493 84.4246 68.1744 84.0314 68.5493 84.2842C68.4493 85.7446 67.6743 85.2392 67.0993 85.2953C67.1743 86.475 68.3493 86.84 68.9745 87.795C67.2494 89.34 67.8244 89.8738 65.8994 91.0535L67.0744 91.3623C65.7745 92.2331 67.4994 93.0477 66.4243 94.087C66.1494 94.087 65.9993 93.4689 65.8493 92.9916C65.8994 94.2835 64.5494 93.75 64.6743 95.042L63.6244 93.7219C63.3744 94.6486 63.4743 96.1374 62.4494 95.3228C63.4494 97.3451 62.1993 100.042 62.5994 102.261L61.5994 101.896C62.1744 102.598 61.8494 103.581 61.6993 104.564C59.2244 99.7328 55.8494 95.3509 51.8244 92.6824C51.0744 91.84 48.8744 92.0927 47.5244 91.7274C48.3993 93.132 49.0245 92.6543 50.0993 93.8062C50.5993 94.9858 49.8243 96.4182 49.7244 97.7666L50.2994 96.5305C51.9994 97.0362 50.4243 97.7947 52.1243 97.9632L50.5744 99.2271C51.6242 98.8901 51.5744 100.322 51.3493 100.997L52.6494 100.519C52.5493 101.783 52.5994 102.485 51.6743 103.44L52.6744 102.682C52.1744 103.44 54.5244 105.94 52.1494 105.996C52.5243 106.109 53.1744 106.024 53.3244 106.671L52.2743 107.373C52.9244 108.047 53.5745 108.861 53.0493 109.395C52.5744 109.086 52.0495 109.198 51.4994 109.311C52.8244 112.934 55.4245 108.187 56.9243 111.418L56.1745 111.726L57.2994 112.204L56.7244 113.552C58.2244 113.608 58.5993 114.76 58.9493 116.249C59.4243 117.428 59.6242 118.44 60.5993 119.76C61.1993 120.855 64.8495 121.922 66.5494 120.462C68.3244 119.17 67.7743 119.198 68.0744 118.777C68.3244 118.13 68.4994 117.456 68.5243 116.754C68.8494 114.928 70.3993 114.591 70.6243 112.541L69.3995 112.429C70.8242 111.277 72.4243 106.502 75.4243 106.024C74.7244 104.62 75.1494 106.081 74.1995 105.856C73.3744 103.216 75.3493 103.553 76.2995 102.57C76.0243 101.053 75.5993 103.496 74.8994 102.541C76.2995 100.688 73.7994 100.379 75.2494 98.0193C75.9745 97.9912 75.4994 98.8058 75.8994 99.2271C75.2494 97.0924 76.7993 93.8904 77.5994 91.2781C79.3744 88.6377 81.6244 84.7615 84.1494 82.3741L83.7995 82.0653C85.4994 81.5315 85.4493 79.6776 86.7495 78.6383L85.8494 78.8068Z" fill="#96C121"/>
<path d="M98.8514 60.2418L98.0515 59.4272L96.8264 61.0564C97.9264 61.4498 97.8514 60.5789 98.8514 60.2418Z" fill="white"/>
<path d="M100.152 63.444L100.677 62.489L99.4514 63.3314L100.152 63.444Z" fill="white"/>
<path d="M83.0015 78.1623L83.2764 78.0497L84.5514 74.4827L83.0015 78.1623Z" fill="white"/>
<path d="M69.1514 98.6103C68.7515 98.0206 69.1514 97.4868 68.9265 96.9252V98.8071L69.1514 98.6103Z" fill="white"/>
<path d="M61.5015 114.227C63.2513 115.211 61.2764 115.492 63.1015 114.958C62.9514 113.919 62.0763 114.649 61.5015 114.227Z" fill="white"/>
<path d="M63.6265 118.16C63.7765 117.71 63.5514 117.373 63.3014 117.064C62.3764 117.486 63.3264 117.71 63.6265 118.16Z" fill="white"/>
<path d="M39.5899 73.7073C38.0908 73.0372 36.844 72.6031 35.8421 72.3213C41.2713 76.136 46.9179 83.3931 52.0615 91.116C55.5158 92.7265 58.9544 95.5617 62.0116 98.9747C61.7686 97.8155 61.6607 96.6452 60.9398 96.1107L61.8937 96.0947C60.7562 93.8651 60.7696 90.4199 59.2167 88.6239C59.8318 88.881 59.9173 88.5179 59.8471 87.9523C54.2736 82.9482 46.6688 76.8684 39.5899 73.7073Z" fill="white"/>
</g>
</g>
<defs>
<clipPath id="clip0_75_32">
<rect width="200" height="200" fill="white"/>
</clipPath>
<clipPath id="clip1_75_32">
<rect width="128" height="98" fill="white" transform="translate(19 33)"/>
</clipPath>
</defs>
</svg>