<svg width="30" height="30" viewBox="0 0 15 17" fill="none" xmlns="http://www.w3.org/2000/svg">
<mask id="mask0_4_2" style="mask-type:luminance" maskUnits="userSpaceOnUse" x="0" y="0" width="15" height="17">
<path d="M10.3154 -1.13326e-07L0 3.48965L4.30655 16.2198L14.622 12.7302L10.3154 -1.13326e-07Z" fill="white"/>
</mask>
<g mask="url(#mask0_4_2)">
<path d="M2.84796 3.41289L3.49267 3.19479L5.80554 6.84581L5.10763 7.9686C5.64595 9.55987 7.4737 10.7149 8.76312 10.2787L9.0041 8.86717L12.6314 8.97011L12.9006 9.76574C13.1147 10.3988 13.1163 11.0748 12.905 11.6452C12.6938 12.2155 12.2869 12.6334 11.7739 12.807C7.26091 14.3337 3.33625 11.2279 1.7213 6.45411C1.50714 5.82106 1.50553 5.145 1.71682 4.57467C1.92811 4.00433 2.33499 3.58642 2.84796 3.41289Z" fill="#92B509"/>
</g>
</svg>
