<svg xmlns="http://www.w3.org/2000/svg" viewBox="0 0 120 120"><defs><style>.cls-1{fill:#fff;}.cls-2{fill:#c7468a;}</style></defs><g id="Capa_1" data-name="Capa 1"><circle class="cls-1" cx="60" cy="60" r="60"/><path class="cls-2" d="M20.59,33.52a11.29,11.29,0,0,0,1.35.56c.94.2,2.31.3,2.24,1.35-.08,1.21-1.47,1.19-2.5,1.17-1.57,0-3.57.37-4.34-1.26s.53-3.17,1.45-4.55a6.33,6.33,0,0,1,4-2.38c14.76-3.76,29-1.52,42.82,4.07,11,4.43,21,10.42,29,19.38a36.15,36.15,0,0,1,6,8.86c4.13,8.89,2.63,16.69-4.57,23.39-6.38,5.94-14.17,8.37-22.69,8.83a48.25,48.25,0,0,1-14-1.2c-1.28-.32-1.75,0-1.88,1.24-.23,2.09-1.68,2.62-3.52,2.85s-2.82-.7-3.42-2.27a3.34,3.34,0,0,1-.41-1.11c0-3.46-2.36-4.84-5-6.36a47,47,0,0,1-13-10.45C28.21,71,28.78,67.87,34,64.81a38.45,38.45,0,0,1,13.56-4.4c1.52-.26,2.28-.79,2.4-2.52.23-3.33.71-6.64,1.24-9.94.21-1.27.46-3.06,2-3.1s2.67,1.34,3.17,2.87a27.3,27.3,0,0,1,1,9.21c0,1.7.45,2.28,2.29,2.34,4.77.15,9.58.19,14.21,1.64a19.94,19.94,0,0,1,7,3.59c2.42,2,3.06,4.68,1.79,7-1.68,3-5,4.62-7.77,3.82-.55-.16-1.17-.28-1.33-.87s.47-.94.88-1.28c3.64-3.06,3.75-3-1-4.57a56.19,56.19,0,0,0-14.1-2.51c-1.47-.07-1.89.35-1.84,1.85.16,5.25.21,10.5.21,15.76,0,1.29.46,1.92,1.7,2.1,9.58,1.39,19,1.07,27.72-3.62C95,77.88,96.74,69.27,92,60.63,88.5,54.29,83.07,49.87,77.17,46c-14.81-9.75-31-14.74-48.86-13.74A26.76,26.76,0,0,0,20.59,33.52Zm27.15,33.1a52.49,52.49,0,0,0-13.92,2.71c-2.32.86-2.45,1.54-.86,3.37,4,4.57,9,7.46,14.63,9.49,1.64.59,1.65-.15,1.66-1.38,0-4,0-8.1.25-12.13C49.65,66.7,49,66.34,47.74,66.62Z"/></g></svg>