<svg xmlns="http://www.w3.org/2000/svg" viewBox="0 0 120 120"><defs><style>.cls-1{fill:#fff;}.cls-2{fill:#305592;}</style></defs><g id="Capa_1" data-name="Capa 1"><circle class="cls-1" cx="60" cy="60" r="60"/><path class="cls-2" d="M60,97A37.06,37.06,0,0,1,22.85,60,37.08,37.08,0,0,1,60,23a37,37,0,1,1,0,74Zm0-68.28A31.28,31.28,0,1,0,91.41,60,31.38,31.38,0,0,0,60,28.72Z"/><path class="cls-2" d="M60,96A36.07,36.07,0,1,1,85.56,85.46,36,36,0,0,1,60,96Zm0-68.28A32.28,32.28,0,1,0,92.41,60,32.38,32.38,0,0,0,60,27.72Z"/><path class="cls-2" d="M51.85,84.21a1,1,0,0,1-1-1V81.09a1,1,0,0,1,1-1c3.45,0,3.91-1.68,3.91-3.33V62.66c0-4.08-1.78-4.6-3.34-4.6a1,1,0,0,1-1-1V55.14a1,1,0,0,1,.79-1L62.53,52l.21,0a1,1,0,0,1,.63.22,1,1,0,0,1,.37.78v24.1c0,1.41.5,3,4.41,3a1,1,0,0,1,1,1v2.12a1,1,0,0,1-1,1Zm7.4-38.06c-1.78,0-4.77-.69-4.77-5.32,0-3.25,1.8-5,5.06-5s4.84,1.79,4.84,5C64.38,44.26,62.56,46.15,59.25,46.15Z"/><path class="cls-2" d="M62.74,77.05V53L52.42,55.14v1.92q4.34,0,4.34,5.6v14.1q0,4.33-4.91,4.33v2.12h16.3V81.09Q62.74,81.09,62.74,77.05Zm-3.2-40.26c-2.71,0-4.06,1.34-4.06,4q0,4.32,3.77,4.32,4.13,0,4.13-4.32C63.38,38.13,62.1,36.79,59.54,36.79Z"/></g></svg>