<svg id="Layer_1" data-name="Layer 1" xmlns="http://www.w3.org/2000/svg" viewBox="0 0 25.051 25.051"><defs><style>.cls-1{fill:#fff;}.cls-2{fill:#96c022;}.cls-3{fill:#121d49;}.cls-4{fill:#fefefe;}</style></defs><circle class="cls-1" cx="12.526" cy="12.526" r="12.526"/><path class="cls-2" d="M7.6,14.5a.279.279,0,0,1,.149.062.13.13,0,0,1,.04.127,3.685,3.685,0,0,1-1.274.73.4.4,0,0,1-.049,0,.213.213,0,0,1-.151-.1.134.134,0,0,1,.01-.055A4.854,4.854,0,0,1,7.6,14.5Z"/><path class="cls-2" d="M6.552,15.677l-.142-.019a.453.453,0,0,1-.308-.22l-.04-.068.035-.207c.141-.324,1.362-.876,1.427-.9l.062-.022.064.012a.5.5,0,0,1,.28.131.369.369,0,0,1,.114.308l0,.068-.037.061a3.69,3.69,0,0,1-1.4.83Z"/><path class="cls-2" d="M5.579,11.548c.274.005,1.292-.032,1.445.145.025.029.017.043.016.079a.639.639,0,0,1-.143.155A4.807,4.807,0,0,1,5.434,11.8a.14.14,0,0,1,0-.15A.218.218,0,0,1,5.579,11.548Z"/><path class="cls-2" d="M6.976,12.183l-.1-.007c-.086-.007-.219-.007-.363-.005A2.441,2.441,0,0,1,5.283,12l-.055-.042L5.2,11.9a.38.38,0,0,1,.006-.354.451.451,0,0,1,.279-.226l.1-.017h.171c.834-.008,1.284.03,1.458.231a.308.308,0,0,1,.077.244l0,.067-.04.075a.937.937,0,0,1-.192.208Z"/><path class="cls-2" d="M12.333,4.467a.336.336,0,0,1,.251.037.389.389,0,0,1,.015.077,10.444,10.444,0,0,1-.028,1.493.478.478,0,0,1-.073.085.325.325,0,0,1-.133-.039.159.159,0,0,1-.068-.1A5.32,5.32,0,0,1,12.333,4.467Z"/><path class="cls-2" d="M12.459,6.406a.568.568,0,0,1-.232-.077.4.4,0,0,1-.171-.247,5.076,5.076,0,0,1,.058-1.736l.064-.114.128-.014a.566.566,0,0,1,.425.084l.076.055.022.092a.553.553,0,0,1,.018.108A8.958,8.958,0,0,1,12.8,6.176a.485.485,0,0,1-.1.134l-.091.092Zm.04-.332.056.025L12.5,6.052Z"/><path class="cls-2" d="M6.351,7.867a.549.549,0,0,1,.068.024,5.568,5.568,0,0,1,1.311.815.45.45,0,0,1-.107.212,1.212,1.212,0,0,1-.18-.073c-.234-.124-1.15-.589-1.213-.8A.333.333,0,0,1,6.351,7.867Z"/><path class="cls-2" d="M7.742,9.182l-.2-.026a1.526,1.526,0,0,1-.217-.09l-.066-.035c-.994-.52-1.213-.723-1.271-.913l-.017-.055.009-.057a.524.524,0,0,1,.172-.295l.107-.106.164.023c.029.009.06.019.089.031s1.312.625,1.448.951l.022.056,0,.06a.583.583,0,0,1-.13.3Z"/><path class="cls-2" d="M8.723,5.25l.036.012a5.43,5.43,0,0,1,.829,1.473c0,.074-.062.129-.106.184a.663.663,0,0,1-.115-.052,6.776,6.776,0,0,1-.77-1.46A.323.323,0,0,1,8.723,5.25Z"/><path class="cls-2" d="M9.583,7.182l-.19-.029a.826.826,0,0,1-.159-.074,6.149,6.149,0,0,1-.882-1.621L8.342,5.4l.012-.054a.509.509,0,0,1,.185-.269l.107-.092.157.026-.08.237.086-.235c.41.159,1.008,1.618,1.014,1.632l.017.044v.046a.478.478,0,0,1-.143.315Z"/><path class="cls-2" d="M18.557,11.6a5.449,5.449,0,0,1,.866-.005.255.255,0,0,1,.184.106.2.2,0,0,1-.018.154c-.165.122-.491.061-.69.057a7.9,7.9,0,0,1-.91,0,.147.147,0,0,1-.137-.242C18.018,11.545,18.356,11.6,18.557,11.6Z"/><path class="cls-2" d="M19.264,12.182c-.082,0-.163-.006-.237-.011s-.112-.008-.167-.008c-.087,0-.181,0-.277.008a3.378,3.378,0,0,1-.63-.01.471.471,0,0,1-.326-.187l-.05-.063,0-.08a.466.466,0,0,1,.056-.27l.07-.086a1.073,1.073,0,0,1,.729-.129c.151,0,.265,0,.4-.006a2.852,2.852,0,0,1,.634.009.507.507,0,0,1,.341.205l.046.11a.422.422,0,0,1-.037.295l-.026.059-.053.039A.776.776,0,0,1,19.264,12.182Z"/><path class="cls-2" d="M15.986,5.332a.666.666,0,0,1,.133.026c.062.027.07.049.094.106A6.763,6.763,0,0,1,15.5,6.988a.45.45,0,0,1-.108-.017c-.069-.031-.076-.057-.1-.122A6.734,6.734,0,0,1,15.986,5.332Z"/><path class="cls-2" d="M15.609,7.252l-.137-.015a.547.547,0,0,1-.187-.04.382.382,0,0,1-.223-.242l-.023-.119A6.669,6.669,0,0,1,15.776,5.2l.087-.136.159.024-.036.247.06-.244a.564.564,0,0,1,.173.04.386.386,0,0,1,.224.236l.025.059,0,.066a6.692,6.692,0,0,1-.769,1.654Z"/><path class="cls-2" d="M17.1,14.514a7.676,7.676,0,0,1,1.41.725.165.165,0,0,1,.086.144.474.474,0,0,1-.106.186,1.31,1.31,0,0,1-.3-.133c-.23-.123-1.142-.56-1.205-.768A.289.289,0,0,1,17.1,14.514Z"/><path class="cls-2" d="M18.581,15.85l-.153-.039a1.492,1.492,0,0,1-.337-.143l-.157-.081c-.848-.434-1.127-.632-1.191-.848l-.02-.063.016-.066a.493.493,0,0,1,.185-.274l.084-.071h.124a7.308,7.308,0,0,1,1.522.77.406.406,0,0,1,.188.307l.008.055-.015.054a.7.7,0,0,1-.154.276Z"/><path class="cls-2" d="M18.51,7.9a.194.194,0,0,1,.109.021.261.261,0,0,1,.027.019.161.161,0,0,1,.022.023.151.151,0,0,1,.018.026.2.2,0,0,1,.014.03.116.116,0,0,1-.022.1,6.089,6.089,0,0,1-1.509.8l-.116-.038C17.008,8.827,17,8.826,17,8.757A6.7,6.7,0,0,1,18.51,7.9Z"/><path class="cls-2" d="M17.154,9.179,16.906,9.1,16.86,9.04a.384.384,0,0,1-.11-.276l0-.078.041-.064A3.866,3.866,0,0,1,18.157,7.8c.1-.047.183-.087.24-.116l.106-.027a.474.474,0,0,1,.248.059l.071.054h0a.219.219,0,0,1,.034.035l.082.143a.363.363,0,0,1-.046.3,5.56,5.56,0,0,1-1.672.917Z"/><path class="cls-3" d="M12.136,7.018a4.465,4.465,0,0,1,2.074.354c.035.014.07.029.1.045l.1.048.1.05.1.052.1.056c.033.018.065.037.1.057l.1.06L15,7.8l.092.064.092.067L15.277,8c.03.023.059.047.088.071l.086.073c.028.025.057.05.084.076l.083.077.08.079c.027.027.053.054.079.082s.051.055.076.083l.075.085L16,8.714l.07.089.068.09c.023.031.044.061.066.092l.064.093.061.1.059.1c.019.032.038.065.056.1s.037.066.054.1.035.067.052.1.033.068.049.1.032.068.047.1.03.069.044.1a4.96,4.96,0,0,1-.586,4.675c-.259.365-.575.68-.853,1.03a5.067,5.067,0,0,0-.7,1.25.535.535,0,0,1,.2.346.785.785,0,0,1-.254.572l.021.018a.585.585,0,0,1,.23.428.757.757,0,0,1-.268.531.652.652,0,0,1,.172.371.513.513,0,0,1-.144.4,1.145,1.145,0,0,1-.9.315,1.257,1.257,0,0,1-.221.524,1.285,1.285,0,0,1-.917.48,1.414,1.414,0,0,1-.816-.18,1.215,1.215,0,0,1-.561-.826,1.288,1.288,0,0,1-.879-.24.576.576,0,0,1-.223-.39.6.6,0,0,1,.185-.436.667.667,0,0,1-.29-.432.767.767,0,0,1,.212-.593c-.013-.014-.025-.029-.038-.042l-.019-.021a.562.562,0,0,1-.156-.4.675.675,0,0,1,.26-.433c-.2-.307-.322-.653-.54-.953-.268-.368-.591-.691-.879-1.043a4.872,4.872,0,0,1-1.052-2.663A4.677,4.677,0,0,1,8.738,8.769,4.8,4.8,0,0,1,12.136,7.018Z"/><path class="cls-3" d="M12.361,21.067a1.649,1.649,0,0,1-.842-.218,1.405,1.405,0,0,1-.623-.794,1.382,1.382,0,0,1-.85-.3.81.81,0,0,1-.312-.569.762.762,0,0,1,.1-.416.8.8,0,0,1-.2-.425.883.883,0,0,1,.143-.618.791.791,0,0,1-.146-.491.764.764,0,0,1,.2-.453c-.051-.091-.1-.184-.146-.276a3.589,3.589,0,0,0-.284-.5c-.16-.219-.339-.421-.519-.625-.118-.134-.237-.267-.35-.406a5.1,5.1,0,0,1-1.108-2.8A4.912,4.912,0,0,1,8.549,8.606a5.076,5.076,0,0,1,3.563-1.838,4.674,4.674,0,0,1,2.194.373l1.219.74.885.963c.021.03.046.065.068.1l.443.835a5.18,5.18,0,0,1-.613,4.916,7.824,7.824,0,0,1-.515.631c-.117.135-.236.27-.346.409a4.56,4.56,0,0,0-.607,1.045.7.7,0,0,1,.151.369.838.838,0,0,1-.173.582.747.747,0,0,1,.171.457.842.842,0,0,1-.2.553.812.812,0,0,1,.1.33.771.771,0,0,1-.207.591,1.261,1.261,0,0,1-.887.389,1.387,1.387,0,0,1-.219.432,1.518,1.518,0,0,1-1.087.578C12.448,21.065,12.4,21.067,12.361,21.067Zm-1.08-1.51.048.192a.968.968,0,0,0,.446.671,1.16,1.16,0,0,0,.671.145,1.026,1.026,0,0,0,.735-.382,1,1,0,0,0,.176-.424l.041-.2.2,0a.9.9,0,0,0,.718-.234.265.265,0,0,0,.079-.207.4.4,0,0,0-.115-.233l-.139-.167.147-.161c.124-.136.205-.235.2-.356,0-.062-.02-.135-.147-.25l-.179-.16.133-.2c.128-.155.211-.265.2-.386-.007-.063-.025-.1-.121-.193l-.122-.12.066-.157a5.433,5.433,0,0,1,.739-1.308c.116-.147.239-.287.362-.428.167-.191.335-.383.484-.592a4.74,4.74,0,0,0,.558-4.435l-.721-1.18-.791-.724L15,7.8l-.137.209L14.4,7.737l.014-.272-.11.224-.2-.088a4.238,4.238,0,0,0-1.946-.335h-.01A4.541,4.541,0,0,0,8.928,8.932a4.411,4.411,0,0,0-1.012,3.211,4.615,4.615,0,0,0,1,2.526c.109.133.224.262.337.39.19.216.381.431.55.664a4.175,4.175,0,0,1,.325.56,4.4,4.4,0,0,0,.222.4l.114.175-.152.143c-.111.1-.175.181-.18.265a.3.3,0,0,0,.087.212l.178.2-.105.183c-.136.177-.182.288-.163.4s.06.165.2.279l.205.166-.177.2a.353.353,0,0,0-.12.257.335.335,0,0,0,.134.209,1.073,1.073,0,0,0,.716.182Zm-1.258-1.892,0,0,.007-.014Z"/><path class="cls-4" d="M10.554,12.039a.565.565,0,0,1,.353.076,2.091,2.091,0,0,1,.634,1.314c-.1-.028-.206-.063-.308-.094a1.768,1.768,0,0,1-.947-.689.4.4,0,0,1-.048-.324A.539.539,0,0,1,10.554,12.039Z"/><path class="cls-4" d="M13.794,12.037a.744.744,0,0,1,.17,0,.5.5,0,0,1,.339.178.4.4,0,0,1,.007.295,1.46,1.46,0,0,1-.786.772,3.817,3.817,0,0,1-.45.159,2.889,2.889,0,0,1,.154-.775A1.02,1.02,0,0,1,13.794,12.037Z"/><path class="cls-4" d="M11.824,13.743l.948,0,0,2.9h-.95C11.806,15.68,11.825,14.709,11.824,13.743Z"/><path class="cls-2" d="M11.492,19.815l1.827,0a1.03,1.03,0,0,1-.324.5,1.685,1.685,0,0,1-.2.113,1.2,1.2,0,0,1-.9,0,.81.81,0,0,1-.453-.458c-.021-.056-.045-.092-.02-.147Z"/><path class="cls-2" d="M13.394,18.869c.23,0,.682-.066.866.067a.175.175,0,0,1,.088.138.4.4,0,0,1-.116.265.613.613,0,0,1-.346.162,5.459,5.459,0,0,1-.839.008l-1.8,0a1.593,1.593,0,0,1-.738-.074.39.39,0,0,1-.207-.241l0-.031c0-.01,0-.021,0-.031a.163.163,0,0,1,0-.031l.007-.03.01-.03.014-.027.017-.027.02-.023a.247.247,0,0,1,.156-.078,6.5,6.5,0,0,1,.957-.011Z"/><path class="cls-2" d="M10.542,16.951c.745-.029,1.5-.013,2.24-.012.394,0,.806-.034,1.2,0a.9.9,0,0,1,.327.078.248.248,0,0,1,.147.167.358.358,0,0,1-.067.24.42.42,0,0,1-.294.167,31.4,31.4,0,0,1-3.708-.054.353.353,0,0,1-.2-.212.226.226,0,0,1,.039-.2A.482.482,0,0,1,10.542,16.951Z"/><path class="cls-2" d="M10.36,17.891c.722-.016,1.448,0,2.171-.006.482,0,.975-.024,1.455,0a.543.543,0,0,1,.42.155.264.264,0,0,1,.032.219.421.421,0,0,1-.229.26,14.58,14.58,0,0,1-2.066.038c-.5,0-1.008.043-1.5.01a.568.568,0,0,1-.408-.164.313.313,0,0,1-.058-.261A.355.355,0,0,1,10.36,17.891Z"/><path class="cls-4" d="M12.163,7.317c.086,0,.173-.008.259-.008s.174,0,.26.008.173.013.259.023.171.024.256.039.17.034.254.055.167.044.25.07.164.055.245.086.161.064.24.1q.048.021.1.045l.1.047c.032.016.063.033.094.05s.063.034.093.052.061.036.092.054l.09.056.089.059.087.061c.029.02.057.041.086.063l.084.064.082.067.081.069.08.071c.026.024.052.048.077.073s.051.049.076.075.05.05.074.076l.072.078.07.08c.023.027.046.054.068.082s.045.055.066.083.043.056.064.085.042.057.062.086.041.058.06.088l.058.089.056.091c.018.03.036.061.053.092s.035.062.051.093.033.063.049.1.031.063.047.095.029.065.044.1l.042.1.039.1a4.664,4.664,0,0,1-.576,4.254c-.272.384-.607.717-.9,1.087a5.664,5.664,0,0,0-.7,1.2c-.4-.037-.828.006-1.234,0a8.36,8.36,0,0,1-.014-1.074l.011-1.837a2.616,2.616,0,0,0,.785-.3,1.509,1.509,0,0,0,.749-.844c0-.022.009-.045.012-.068s.005-.045.006-.069,0-.045,0-.068-.005-.046-.009-.069-.01-.045-.016-.067-.014-.044-.023-.065-.019-.042-.03-.062a.58.58,0,0,0-.036-.059.631.631,0,0,0-.044-.058.639.639,0,0,0-.05-.054.617.617,0,0,0-.054-.048c-.019-.015-.039-.029-.059-.042a.688.688,0,0,0-.063-.037c-.022-.011-.044-.021-.067-.03a.508.508,0,0,0-.069-.023.594.594,0,0,0-.07-.017.763.763,0,0,0-.6.155,2.133,2.133,0,0,0-.643,1.52.342.342,0,0,1-.2.027h-.749a2.735,2.735,0,0,0-.357-1.137,1.059,1.059,0,0,0-.639-.544.915.915,0,0,0-.146-.02c-.024,0-.049,0-.073,0s-.049,0-.074.009-.048.009-.072.015-.047.014-.07.023-.045.018-.067.029-.043.023-.064.036a.688.688,0,0,0-.308.449.781.781,0,0,0,.154.6,2.251,2.251,0,0,0,1.421.8c.045.967.011,1.96,0,2.929q-.569,0-1.135.01a8.132,8.132,0,0,0-.638-1.071c-.242-.325-.53-.614-.786-.927l-.1-.133c-.034-.045-.067-.091-.1-.137s-.065-.094-.1-.141-.061-.1-.09-.145-.057-.1-.084-.147-.053-.1-.078-.151-.049-.1-.073-.153-.045-.1-.066-.156-.042-.106-.061-.159-.038-.106-.055-.16-.034-.108-.049-.163-.03-.109-.043-.164-.025-.11-.037-.166-.021-.111-.03-.167-.017-.112-.024-.168-.013-.112-.018-.169c0-.036-.006-.073-.008-.109s0-.074-.006-.11,0-.073,0-.11,0-.073,0-.11,0-.073,0-.11,0-.073,0-.11.005-.073.008-.109.007-.073.011-.11.008-.073.013-.109.01-.072.016-.109.011-.072.018-.108l.021-.108.024-.107c.009-.036.017-.071.027-.107s.019-.071.029-.106.021-.07.032-.1.022-.07.034-.1.024-.069.037-.1l.039-.1c.014-.034.028-.068.043-.1s.029-.067.044-.1.031-.067.047-.1.033-.065.05-.1.034-.065.051-.1.036-.064.055-.1.037-.063.056-.1.039-.062.059-.092l.061-.092c.021-.03.042-.06.064-.089s.043-.059.066-.089L8.923,9c.023-.029.047-.057.07-.085A4.466,4.466,0,0,1,12.163,7.317Z"/><path class="cls-3" d="M13.38,8.174a3.7,3.7,0,0,1,1.707.922,3.375,3.375,0,0,1,1.022,2.267A.3.3,0,0,1,16,11.62c-.023-.007-.047-.013-.07-.021-.073-.026-.087-.065-.1-.136-.029-.147-.024-.3-.046-.449a3.114,3.114,0,0,0-.537-1.288,3.217,3.217,0,0,0-.821-.787,10.687,10.687,0,0,1-1.118-.583A.32.32,0,0,1,13.38,8.174Z"/></svg>