<?xml version="1.0" encoding="UTF-8"?>
<svg xmlns="http://www.w3.org/2000/svg" xmlns:xlink="http://www.w3.org/1999/xlink" viewBox="0 0 500 500">
  <defs>
    <style>
      .cls-1, .cls-2, .cls-3 {
        fill: none;
      }

      .cls-2 {
        stroke-width: 3px;
      }

      .cls-2, .cls-3 {
        stroke: #b6d9f7;
        stroke-miterlimit: 10;
      }

      .cls-4 {
        clip-path: url(#clippath);
      }

      .cls-5 {
        fill: #fff;
      }

      .cls-6 {
        fill: #b6d9f7;
      }

      .cls-7 {
        fill: #dcdcdc;
      }

      .cls-8 {
        fill: #96c121;
      }

      .cls-3 {
        stroke-width: 2px;
      }
    </style>
    <clipPath id="clippath">
      <rect class="cls-1" width="499.976" height="499.976"/>
    </clipPath>
  </defs>
  <g id="BACKGROUND">
    <rect class="cls-5" x="0" y="-.051" width="500.003" height="500.027"/>
  </g>
  <g id="OBJECTS">
    <g class="cls-4">
      <g>
        <path class="cls-7" d="M393.042,175.545c12.845,10.047,25.804,19.958,38.843,29.753,6.598-7.831,13.197-15.661,19.795-23.492,4.486-5.323,8.966-10.656,13.431-16.003-11.334-11.377-23.45-21.904-35.81-32.167-12.33,13.746-24.229,27.891-36.258,41.909Z"/>
        <path class="cls-7" d="M456.606,105.399c-.161-.072-.295-.194-.452-.274-3.733,3.913-7.466,7.827-11.199,11.741-4.49,4.707-8.87,9.515-13.214,14.357,12.36,10.263,24.476,20.79,35.81,32.167,9.83-11.772,19.538-23.647,28.874-35.795-11.69-9.244-22.894-19.1-33.419-29.651-2.284,2.394-4.567,4.788-6.851,7.182,.157,.08,.291,.202,.452,.274Z"/>
        <path class="cls-7" d="M422.661,64.752c-.592,1.595-1.268,3.162-2.065,4.689-.354,.678-.814,1.286-1.204,1.941,9.728,10.699,20.597,20.36,32.43,28.672,.742,.521,1.518,.994,2.323,1.407,2.284-2.394,4.567-4.788,6.851-7.182-.187-.188-.388-.362-.575-.551,.187,.188,.388,.363,.575,.551,1.31-1.373,2.62-2.746,3.929-4.119,3.153-3.306,6.318-6.626,8.956-10.355,3.268-4.619,5.531-9.705,7.205-15.025-19.475-.07-38.95-.069-58.425-.028Z"/>
        <g>
          <path class="cls-8" d="M391.788,176.959c-2.539,2.958-5.064,5.929-7.624,8.866-10.932,12.545-21.905,25.144-30.945,39.115-6.136,9.484-11.243,19.325-14.739,30.038,3.189,2.545,7.542,6.335,10.604,9.062,6.845,6.097,13.654,11.734,20.75,15.208,20.044-23.787,40.754-48.751,60.797-72.537-13.039-9.795-25.997-19.706-38.843-29.753Z"/>
          <path class="cls-8" d="M434.314,209.396c-20.043,23.786-40.431,48.354-60.475,72.141,21.328,9.879,25.392,12.009,35.512,15.497,12.047,4.152,15.137,5.453,39.865,9.727v-86.174c-5.004-3.689-9.935-7.461-14.901-11.192Z"/>
        </g>
        <path class="cls-7" d="M205.874,284.706s33.425,23.765,37.149,25.857c8.093-14.444,15.68-27.46,24.725-41.208-11.957-7.768-24.09-16.157-36.312-23.513-.819,1.561-17.362,26.823-25.561,38.864Z"/>
        <path class="cls-7" d="M425.867,42.26q.445,.011,0,0c-.374,5.679-1.262,11.256-3.206,16.498,19.475-.041,38.95-.042,58.425,.028,3.86-12.265,4.231-25.914,4.018-38.959-.002-.11-.007-.221-.009-.331-19.756,1.138-39.525,1.992-59.306,2.5,.032,.865,.064,1.73,.096,2.595,.215,5.84,.368,11.808-.018,17.67Z"/>
        <path class="cls-7" d="M389.123,174.265c-7.223-5.65-17.622-13.794-24.81-19.51-4.064-3.232-4.999-3.965-8.945-7.435-8.274,10.856-17.49,21.247-25.809,32.067-5.91,7.685-12.95,16.462-17.642,24.946-4.536,8.204-6.876,15.508-10.996,23.925,11.224,7.685,22.713,15.623,34.611,24.107,3.496-10.714,11.023-25.13,17.159-34.613,9.039-13.971,33.893-40.529,36.431-43.487Z"/>
        <path class="cls-7" d="M255.033,203.706c-7.04,13.413-13.471,25.666-20.511,39.079,12.223,7.357,24.328,14.887,36.284,22.655,4.686-7.123,9.689-14.01,15.28-20.458,4.387-5.059,7.317-10.08,10.26-16.091-12.596-7.949-40.302-24.537-41.313-25.186Z"/>
        <path class="cls-7" d="M326.247,177.584c8.32-10.82,16.673-21.617,24.947-32.473-10.825-9.521-21.34-19.682-32.233-29.17-.604,.541-1.186,1.106-1.828,1.606-5.495,4.277-12.73,7.206-15.436,13.622-.946,2.242-2.076,4.376-3.286,6.465,.455,.351,.927,.679,1.381,1.032-.454-.353-.926-.681-1.381-1.032-6.871,11.87-17.375,21.627-24.939,33.205-4.338,6.64-8.03,13.675-11.716,20.697-1.726,3.289-3.245,6.182-4.971,9.471,1.011,.649,28.772,17.011,41.368,24.959,4.12-8.416,7.021-16.287,11.557-24.49,4.692-8.484,10.626-16.206,16.535-23.892Z"/>
        <path class="cls-7" d="M241.575,23.783c3.947-3.446,7.917-6.866,11.791-10.394,1.432-1.304,2.894-2.662,3.706-4.42,1.558-3.374,.319-7.476-1.951-10.418-2.27-2.942-5.429-5.039-8.317-7.377-.698-.565-1.342-1.193-2.012-1.791-6.587,5.514-13.196,10.997-19.677,16.634,5.227,6.16,10.697,12.104,16.461,17.765Z"/>
        <path class="cls-7" d="M217.703,43.779c7.843-6.307,15.522-12.811,23.104-19.43-5.764-5.661-11.234-11.605-16.461-17.765-7.09,6.166-14.061,12.467-21.022,18.778,.448,.577,.931,1.125,1.374,1.706,4.282,5.613,8.359,11.397,13.005,16.711Z"/>
        <path class="cls-7" d="M227.31,242.944c-12.414-7.472-24.959-14.752-37.62-21.883-7.084,10.185-13.976,20.478-20.18,31.147-2.223,3.822-3.04,5.076-5.353,8.843,12.941,7.317,26.094,14.632,39.092,21.968,8.199-12.041,14.855-22.534,21.603-35.391,.819-1.561,1.639-3.122,2.458-4.683Z"/>
        <path class="cls-7" d="M216.691,44.684c-4.646-5.314-8.723-11.097-13.005-16.711-.443-.581-.926-1.129-1.374-1.706-2.843,2.577-5.763,5.066-8.584,7.668-7.763,7.159-15.561,14.554-20.796,23.726-4.07,7.132-7.125,13.725-11.159,20.877-.667,1.182-1.349,2.331-2.018,3.508,13.329,8.159,26.659,16.317,39.988,24.476,.229-.235,.429-.495,.663-.725,6.15-6.037,13.795-10.28,20.684-15.457,1.726-1.297,3.422-2.683,5.028-4.165-.128-.072-.252-.15-.38-.221,.128,.071,.252,.15,.38,.221,4.806-4.433,12.888-20.002,13.665-22.338-7.973-4.886-16.537-11.708-22.735-18.712-.126-.142-.233-.3-.358-.442"/>
        <g>
          <path class="cls-7" d="M159.111,82.798c-7.549,13.287-15.9,25.472-23.739,38.388,6.45,3.983,12.917,7.961,19.338,11.985,7.309-11.228,17.335-26.304,24.865-37.847-7.105-4.349-13.36-8.177-20.465-12.526Z"/>
          <path class="cls-7" d="M180.454,95.891c-7.53,11.544-17.536,26.588-24.845,37.816,6.018,3.773,11.925,7.705,17.855,11.614,4.402-7.025,8.632-13.774,13.034-20.799,3.786-6.041,7.65-12.112,12.63-17.201-6.225-3.81-12.449-7.62-18.674-11.43Z"/>
        </g>
        <path class="cls-7" d="M134.48,120.331c7.839-12.915,16.233-24.766,23.782-38.053-13.499-8.263-28.194-16.665-41.694-24.927-4.724,12.43-10.826,23.825-19.834,33.493-1.288,1.382-2.008,2.355-3.226,3.789,4.516,2.853,9.071,5.993,13.554,8.898,9.04,5.858,18.258,11.144,27.417,16.8Z"/>
        <path class="cls-8" d="M284.38,55.306c5.052-11.66,9.27-23.723,15.712-34.666,1.598-2.714,3.315-5.372,4.894-8.097-4.651-2.156-9.089-4.823-13.19-7.838-3.223-2.369-6.617-5.226-9.456-8.034-7.184,13.259-15.785,25.758-23.627,38.634,.264,.23,.506,.486,.771,.715-.266-.229-.507-.485-.771-.715-4.041,6.634-7.743,13.419-10.679,20.557,12.115-.214,24.23-.385,36.346-.556Z"/>
        <path class="cls-7" d="M219.054,45.053c6.198,7.004,13.47,13.037,21.443,17.924,.716-2.151,1.509-4.266,2.367-6.351-3.691,.065-7.382,.101-11.073,.17,3.691-.069,7.382-.105,11.073-.17,2.936-7.137,6.638-13.922,10.679-20.557-4.029-3.504-7.934-7.147-11.743-10.888-7.582,6.619-15.261,13.123-23.104,19.43,.125,.143,.232,.3,.358,.442Z"/>
        <path class="cls-8" d="M355.105,55.54c1.267-2.364,2.42-4.786,3.342-7.317,1.288-3.538,2.12-7.201,2.754-10.911l-.766-.02,.766,.02c.771-4.51,1.233-9.092,1.644-13.651,.139-1.54,.273-3.084,.405-4.629-10.429-.033-20.859-.037-31.287-.245-3.843-.076-7.632-.698-11.344-1.67-2.138,12.809-3.388,25.764-3.755,38.745,12.747-.147,25.495-.222,38.242-.322Z"/>
        <path class="cls-8" d="M288.125,55.862c8.966-.127,17.93-.285,26.896-.389,.367-12.981,1.618-25.936,3.755-38.745-3.435-.9-6.794-2.123-10.045-3.629-1.579,2.725-3.296,5.383-4.894,8.097-6.442,10.942-10.66,23.005-15.712,34.666Z"/>
        <path class="cls-7" d="M364.046,37.384c18.609,.48,37.218,.959,55.827,1.438,.386-5.861,.233-11.829,.018-17.67-.032-.865-.064-1.73-.096-2.595-17.897,.459-35.797,.601-53.7,.545-.132,1.545-.266,3.089-.405,4.629-.411,4.559-.873,9.141-1.644,13.651Z"/>
        <path class="cls-7" d="M209.82-11.888c-7.541,6.06-14.975,12.25-22.29,18.582,5.134,5.747,10.119,11.617,14.844,17.704,6.961-6.311,13.932-12.612,21.022-18.778-4.781-5.635-9.28-11.494-13.576-17.507Z"/>
        <path class="cls-8" d="M259.522,107.703c12.021,7.674,23.728,15.834,35.019,24.548,1.209-2.089,2.34-4.223,3.286-6.465,2.706-6.416,9.941-9.345,15.436-13.622,.642-.5,1.224-1.065,1.828-1.606-12.238-10.658-24.982-20.412-39.189-27.439-5.158,8.371-10.922,16.397-16.379,24.584Z"/>
        <path class="cls-7" d="M387.663,100.797c-11.513-9.503-22.831-19.221-33.553-29.591-2.839,4.54-6.058,8.878-9.298,13.145-1.607,2.116-3.213,4.233-4.82,6.349,.086,.045,.168,.098,.254,.143-.086-.045-.168-.097-.254-.143-3.404,4.484-6.809,8.969-10.213,13.453-2.903,3.824-5.884,7.645-9.446,10.84,10.893,9.487,21.408,19.649,32.233,29.17,3.042-3.991,6.111-7.961,9.109-11.983,8.12-10.895,16.802-21.371,25.989-31.383Z"/>
        <path class="cls-7" d="M365.922,134.167c-2.998,4.023-6.067,7.993-9.109,11.983,3.946,3.47,7.931,6.858,11.995,10.09,7.188,5.716,14.444,11.312,21.668,16.962,12.029-14.018,23.928-28.163,36.258-41.909-11.537-9.579-23.255-18.961-34.824-28.51-9.187,10.013-17.869,20.488-25.989,31.383Z"/>
        <path class="cls-7" d="M388.914,99.049c3.185-3.471,6.426-6.891,9.732-10.248,5.355-5.437,10.862-10.891,14.753-17.42q-.565-.621,0,0c.39-.654,.85-1.262,1.204-1.941,.796-1.527,1.473-3.094,2.065-4.689-19.573,.041-39.144,.138-58.716,.291-.805,1.502-1.684,2.965-2.59,4.415,10.723,10.37,22.04,20.088,33.553,29.591Z"/>
        <path class="cls-8" d="M244.72,133.819c-6.844,15.608-15.142,29.461-24.634,43.665,10.575,6.786,21.03,13.606,31.606,20.393,1.726-3.289,3.091-5.889,4.817-9.178,3.686-7.022,7.379-14.057,11.716-20.697,7.564-11.578,18.068-21.335,24.939-33.205-11.29-8.713-22.998-16.874-35.019-24.548-5.035,7.555-9.782,15.262-13.424,23.569Z"/>
        <path class="cls-7" d="M393.042,101.039c11.568,9.548,23.287,18.931,34.824,28.51,4.344-4.842,8.724-9.65,13.214-14.357,3.733-3.914,7.466-7.827,11.199-11.741-.806-.413-1.581-.886-2.323-1.407-11.833-8.312-22.702-17.974-32.43-28.672-3.89,6.528-9.398,11.982-14.753,17.42-3.306,3.357-6.547,6.776-9.732,10.248Z"/>
        <path class="cls-7" d="M63.042,78.988c-7.093-4.241-14.417-8.394-22.135-11.347-6.074-2.324-12.424-4.029-18.906-4.547-4.289-.343-11.497-.514-17.422-.453-9.271,.095-18.737,.08-28.008,.175-.743,3.116-1.336,6.268-1.616,9.471-.532,6.092-.911,12.198-1.498,18.274,17.369,2.149,33.731,10.731,48.563,20.382,13.924,9.061,26.554,18.637,41.281,26.163,8.058-14.515,15.525-28.869,26.192-41.436-9.118-6.129-17.054-11.064-26.451-16.683Z"/>
        <path class="cls-7" d="M191.564,218.186c12.66,7.131,25.206,14.411,37.62,21.883,7.04-13.413,13.585-26.093,20.625-39.506-10.575-6.786-21.108-13.631-31.684-20.417-8.72,13.049-17.573,25.118-26.562,38.04Z"/>
        <path class="cls-7" d="M108.456,161.384c.765-1.22,1.531-2.44,2.296-3.661,7.267-11.585,14.373-23.066,21.371-34.597-9.159-5.656-18.311-11.327-27.351-17.186-4.483-2.905-9.009-5.743-13.525-8.596-10.667,12.567-18.38,26.077-26.438,40.592,3.59,1.835,6.331,3.7,10.108,5.161,11.712,4.531,23.016,11.415,33.539,18.285Z"/>
        <path class="cls-7" d="M419.873,42.26c-18.609-.48-37.218-.959-55.827-1.438-.634,3.71-1.466,7.373-2.754,10.911-.922,2.531-2.074,4.952-3.342,7.317,19.572-.153,39.144-.25,58.716-.291,1.944-5.242,2.832-10.819,3.206-16.498Z"/>
        <path class="cls-8" d="M205.516,169.078c3.284,2.107,6.803,3.664,10.086,5.771,9.492-14.204,17.876-28.185,24.72-43.794,3.643-8.307,8.389-16.014,13.424-23.569-7.965-5.084-16.037-9.999-24.288-14.604-1.606,1.481-3.302,2.868-5.028,4.165-6.889,5.177-14.535,9.42-20.684,15.457-.235,.23-.434,.491-.663,.725,.112,.068,.224,.137,.336,.206-.112-.068-.224-.137-.336-.206-4.979,5.089-8.844,11.161-12.63,17.201-4.402,7.025-7.315,11.673-11.717,18.698,5.055,3.871,10.631,9.32,16.058,13.186,3.619,2.578,6.982,4.364,10.722,6.764Z"/>
        <path class="cls-7" d="M146.44,187.71c8.364-13.348,16.729-26.697,25.094-40.044-5.93-3.909-11.909-7.742-17.927-11.515-8.373,12.863-16.746,25.726-25.119,38.588,5.983,4.316,11.941,8.691,17.952,12.971Z"/>
        <path class="cls-7" d="M126.772,175.484c-5.887-4.247-11.811-8.415-17.848-12.356-9.18,14.637-18.361,29.273-27.541,43.909,6.771,2.071,13.302,4.852,19.421,8.339,8.656-13.297,17.312-26.595,25.968-39.892Z"/>
        <path class="cls-7" d="M152.951,135.776c-6.421-4.025-12.849-8.042-19.299-12.025-6.999,11.531-14.105,23.011-21.371,34.597-.765,1.22-1.531,2.44-2.296,3.661,6.037,3.941,11.961,8.109,17.848,12.356,8.373-12.863,16.746-25.726,25.119-38.588Z"/>
        <path class="cls-7" d="M140.35,197.749c1.784-2.847,3.568-5.694,5.352-8.541-6.011-4.28-11.969-8.654-17.952-12.971-8.656,13.297-17.312,26.595-25.968,39.892,6.153,3.507,11.893,7.72,17.036,12.647,1.362,1.305,2.774,2.541,4.186,3.777,3.744-7.621,7.527-15.162,11.639-22.311,2.335-4.06,3.221-8.525,5.707-12.493Z"/>
        <path class="cls-7" d="M178.964,210.72c2.766,1.538,5.509,3.105,8.264,4.657,8.988-12.922,17.988-25.209,26.708-38.258-3.284-2.107-7.48-4.105-10.764-6.212-3.74-2.4-5.816-3.299-9.436-5.877-5.428-3.866-11.18-9.709-16.736-13.373-8.364,13.348-17.447,27.763-25.812,41.111,9.021,6.423,18.173,12.613,27.775,17.953Z"/>
        <path class="cls-8" d="M272.55,80.41c-3.669-1.815-8.057-3.812-11.941-5.225-5.929-2.157-11.618-4.946-16.997-8.243-.777,2.335-1.486,4.703-2.069,7.128-1.509,6.28-5.499,11.564-10.305,15.998,8.251,4.605,16.324,9.52,24.288,14.604,5.457-8.187,11.866-15.891,17.024-24.262Z"/>
        <path class="cls-7" d="M301.727,65.365h0c.005-.189,.002-.094,0,0Z"/>
        <path class="cls-8" d="M287.17,58.786c-1.526,3.521-3.33,9.016-5.094,12.421-1.706,3.291-3.144,6.935-5.09,10.091,14.207,7.027,26.951,17.704,39.189,28.362,3.562-3.195,6.543-7.016,9.446-10.84,3.404-4.484,6.961-8.749,9.717-13.716-11.664-6.131-25.247-17.401-35.186-26.054,0,0-7.622-.263-12.982-.263Z"/>
        <path class="cls-8" d="M315.599,59.108c-.005,.189-.003,.094,0,0-4.049,.047-8.76-.161-12.81-.1,9.939,8.653,22.679,17.556,34.344,23.687,1.607-2.116,3.213-4.232,4.82-6.349,3.24-4.267,6.459-8.605,9.298-13.145-.244-.236-.366-.354-.366-.354,0,0,.122,.118,.366,.354,.907-1.45,1.786-2.914,2.59-4.415-12.747,.1-25.495,.175-38.242,.322Z"/>
        <path class="cls-7" d="M301.728,65.365h0c-.002,.094-.005,.189,0,0Z"/>
        <path class="cls-8" d="M273.243,79.518c1.945-3.157,3.756-7.075,5.462-10.366,1.764-3.404,2.561-6.845,4.087-10.366-12.115,.172-24.231,.342-36.346,.556-.858,2.085-1.651,4.2-2.367,6.351,5.379,3.297,11.068,6.086,16.997,8.243,3.884,1.413,8.497,3.767,12.166,5.582Z"/>
        <path class="cls-7" d="M185.008,218.093c-2.755-1.552-5.498-3.119-8.264-4.657-9.603-5.34-18.754-11.53-27.775-17.953-1.784,2.847-3.568,5.694-5.352,8.541-2.487,3.968-3.373,8.434-5.707,12.493-4.111,7.149-6.717,12.299-10.46,19.92,9.673,8.464,20.818,15.283,32.038,21.627,2.314-3.767,3.119-5.002,5.342-8.824,6.204-10.669,13.095-20.962,20.18-31.147Z"/>
        <path class="cls-7" d="M102.52,218.584c-.042,.065-.085,.131-.127,.196,.042-.065,.085-.131,.127-.196-6.119-3.487-12.65-6.268-19.421-8.339-1.406,2.241-2.811,4.483-4.217,6.724-14.343,22.867-28.685,45.733-43.028,68.599,10.807,7.758,22.122,16.108,32.928,23.866,2.05-1.362,3.591-3.317,5.641-4.68,23.835-15.842,36.326-43.301,49.319-69.747-1.412-1.236-2.824-2.472-4.186-3.777-5.143-4.927-10.882-9.14-17.036-12.647Z"/>
        <g>
          <path class="cls-7" d="M209.356-12.354c-1.895-2.653-4.395-5.33-6.191-8.051h-42.424c7.799,8.096,18.248,18.215,25.736,26.597,7.315-6.332,15.337-12.486,22.879-18.546Z"/>
          <g>
            <path class="cls-7" d="M159.312-20.228h-23.84c-.464,4.133-1.275,9.028-1.919,13.076l31.151,31.151c7.996-6.966,15.357-13.314,20.344-17.63-7.489-8.381-17.938-18.501-25.736-26.597Z"/>
            <g>
              <path class="cls-7" d="M133.327-5.734c-2.35,14.775-5.966,29.353-10.201,43.714-1.856,6.293-3.895,12.603-6.24,18.775,2.814,1.722,4.782,2.927,7.596,4.649,9.856-9.533,26.825-25.533,39.451-36.532l-30.605-30.605Z"/>
              <path class="cls-7" d="M186.394,7.82c-4.987,4.316-12.348,10.664-20.344,17.63l.227,.227-.227-.227c-12.626,10.999-30.153,27.234-40.009,36.766,10.685,6.54,21.955,12.546,32.64,19.086,.669-1.177,1.351-2.326,2.018-3.508,4.034-7.152,7.089-13.746,11.159-20.877,5.235-9.172,13.033-16.567,20.796-23.726,2.821-2.601,5.741-5.091,8.584-7.668-4.724-6.086-9.71-11.957-14.844-17.704Z"/>
            </g>
          </g>
        </g>
        <path class="cls-7" d="M235.662-20.405h-15.228c-2.799,2.188-7.158,5.789-9.927,8.015,4.296,6.013,8.794,11.872,13.576,17.507,6.481-5.637,13.091-11.12,19.677-16.634-2.999-2.675-5.724-5.645-8.097-8.888Z"/>
        <g>
          <path class="cls-8" d="M118.619-20.228h-46.449C62.711-13.837,48.304-6.773,38.163-2.718,22.598,3.504,7.903,12.403-3.548,24.645c-9.255,9.894-16.221,22.096-19.351,35.222,9.271-.095,18.542-.19,27.814-.286,5.925-.061,11.866-.121,17.758,.514,6.466,.697,12.92,2.061,18.994,4.385,7.718,2.953,16.696,7.356,23.789,11.597,9.397,5.618,17.237,10.857,26.493,16.704,1.218-1.434,1.946-2.416,3.234-3.799,9.008-9.668,15.074-21.488,19.798-33.918-.215-.132-.431-.264-.647-.396,.215,.132,.431,.264,.647,.396,2.345-6.171,4.384-12.482,6.24-18.775,4.236-14.361,8.746-28.402,11.096-43.178l-13.698-13.339Z"/>
          <g>
            <path class="cls-8" d="M16.632-1.248c.615,7.004,1.367,14.077,2.385,20.906,0,0-1.447-11.471-2.385-20.906Z"/>
            <g>
              <path class="cls-8" d="M19.206,19.633s.009-.005,.013-.008c-.663-4.801-1.916-14.136-2.586-20.874,.53,6.033,1.626,14.307,2.573,20.881Z"/>
              <path class="cls-8" d="M19.658,22.764s-.174-1.217-.439-3.139c-.004,.003-.008,.005-.013,.008,.153,1.058,.311,2.184,.452,3.131Z"/>
              <path class="cls-8" d="M14.779,8.072c-.947-6.574-2.282-15.092-2.812-21.126-.263-2.649-.489-5.148-.629-7.175H-36.986V3.864c7.903,7.348,20.685,17.621,29.681,22.989,.74-1.164,14.461-14.042,22.083-18.781Z"/>
              <path class="cls-8" d="M70.328-20.228H12.258c.162,2.357,.418,4.778,.629,7.175,.67,6.738,1.923,16.073,2.586,20.874C22.089,3.708,29.09,.172,36.321-2.718c10.141-4.055,24.548-11.118,34.007-17.51Z"/>
            </g>
          </g>
        </g>
        <path class="cls-8" d="M292.057,3.165c4.101,3.015,8.539,5.682,13.19,7.838,1.245-2.149,2.412-4.336,3.314-6.65,1.753-4.492,2.458-9.266,2.674-14.096-.188-.013-.376-.013-.563-.027,.188,.014,.376,.014,.563,.027,.159-3.552,.082-7.132-.184-10.667h-20.773c-2.008,5.43-4.481,10.634-7.227,15.704,2.839,2.808,5.782,5.503,9.005,7.872Z"/>
        <path class="cls-7" d="M248.15-8.885c2.888,2.338,6.046,4.435,8.317,7.377,2.27,2.942,3.509,7.044,1.951,10.418-.812,1.758-2.274,3.116-3.706,4.42-3.874,3.528-8.444,7.574-12.391,11.02,3.809,3.741,7.818,7.461,11.847,10.965,7.841-12.875,17.391-25.917,24.575-39.176-4.946-4.892-9.907-11.09-14.244-16.544l-7.122-.006c-3.558,3.03-7.701,6.773-11.239,9.735,.671,.598,1.314,1.226,2.012,1.791Z"/>
        <path class="cls-7" d="M366.095,16.547c17.902,.056,35.803-.086,53.7-.545-.448-12.137-.896-24.275-1.343-36.412h-52.53c1.942,12.137,1.232,24.616,.174,36.957Z"/>
        <path class="cls-8" d="M316.184-7.829c-.216,4.83-.737,7.696-2.49,12.188-.903,2.314-2.07,4.501-3.314,6.65,3.25,1.506,6.61,2.729,10.045,3.629,.034-.207,.059-.415,.094-.621-.035,.206-.059,.414-.094,.621,3.712,.972,7.501,1.594,11.344,1.67,10.427,.208,20.857,.212,31.287,.245,.729-8.506,1.303-14.872,.947-23.352-15.285,.388-32.759,.041-47.818-1.03Z"/>
        <path class="cls-7" d="M170.302,446.111c6.246-44.788,53.428-98.649,58.658-111.024-7.846-.045-31.64-.104-39.49,.017-10.741,.166-18.816,.331-29.557,.497-6.373,10.043-12.412,20.201-14.415,31.841-8.627,50.149-3.189,101.528,.499,152.344h25.972c-4.15-9.74-4.993-49.824-1.667-73.674Z"/>
        <path class="cls-7" d="M144.258,368.162c2.002-11.639,8.435-22.517,14.808-32.561-16.033,.247-31.638,.46-47.67,.707-2.849,9.368-2.147,19.679-1.611,29.511,2.785,51.143,2.925,102.702,.437,153.967h33.903c-3.689-50.815-8.493-101.475,.134-151.624Z"/>
        <path class="cls-7" d="M325.716,471.335h2.003c.442-10.998,.416-21.982-.755-32.94-1.823-17.061-3.582-34.128-5.279-51.202-1.362-13.708-2.638-27.459-2.477-41.229h-54.93c-11.459,.474-22.919,.416-34.381,.351-10.319,16.423-20.806,32.753-31.176,49.132-3.917,6.187-7.853,12.408-10.717,19.147-2.404,5.655-4.94,13.418-6.326,19.405-2.564,11.07-5.305,25.349-5.242,36.712,.09,16.108,.126,27.386,7.396,48.575l140.466,.499c1.008-19.911,2.621-28.585,3.42-48.451h-2.003Z"/>
        <path class="cls-7" d="M540.89,477.329h-210.035c-.799,19.865-1.864,22.546-2.872,42.457h212.907v-42.457Z"/>
        <path class="cls-7" d="M1.164,447.858c.404-24.382,5.4-48.478,5.241-72.862-.051-7.857-.102-15.715-.154-23.572-13.275,8.549-26.818,16.655-41.101,23.338v145.447H.185c1.593-24.051,.579-48.232,.979-72.351Z"/>
        <g>
          <path class="cls-7" d="M5.621,314.193c-5.226-.066-33.638,1.107-40.47,1.98v56.949c14.282-6.683,27.825-14.789,41.101-23.338-.045-6.829-.089-13.658-.134-20.487-.033-5.039-.175-10.077-.497-15.103Z"/>
          <path class="cls-7" d="M-.002,263.449c.149-2.633,.422-5.256,1.022-7.847,4.013-17.318,11.988-33.085,21.318-48.237-21.246,5.588-40.915,17.031-57.188,31.937v24.079c7.33-1.44,28.123-2.164,34.847,.068Z"/>
          <path class="cls-7" d="M-.002,264.87c-6.724-2.232-27.517-1.507-34.847-.068v24.868c11.002-1.903,25.586-3.677,36.593-3.973-1.239-6.986-2.132-13.963-1.746-20.827Z"/>
          <path class="cls-7" d="M5.163,306.837c-.802-6.58-2.234-13.26-3.418-19.94-11.008,.297-25.591,2.07-36.593,3.973v24.177c6.833-.872,35.244-2.045,40.47-1.98-.133-2.079-.206-4.162-.458-6.232Z"/>
        </g>
        <path class="cls-7" d="M45.424,170.072c6.673-9.811,11.323-20.82,17.098-31.222-14.727-7.526-27.025-17.107-40.949-26.168-14.832-9.651-31.194-18.234-48.563-20.382-.528,5.468-1.22,10.911-2.401,16.286-1.271,5.785-4.959,15.64-7.595,20.943v15.266c7.233-1.435,16.265-2.559,23.544-3.739,3.464-.562,7.451-.953,10.067,1.385,1.653,1.477,2.358,3.761,2.557,5.969,.564,6.252-2.631,12.698-7.949,16.033-2.31,1.449-4.925,2.323-7.483,3.268-6.561,2.426-12.894,5.449-18.952,8.947v60.488c16.273-14.906,35.942-26.349,57.188-31.937,7.362-11.957,15.55-23.539,23.439-35.139Z"/>
        <g>
          <path class="cls-8" d="M2.714,519.786H106.756c.867-17.857,1.32-32.64,1.7-50.563l-104.89-3.882c.011,19.115,.409,35.398-.853,54.445Z"/>
          <path class="cls-8" d="M109.148,336.343c-17.978,.277-35.955,.555-53.933,.832-7.016,.108-14.382,.097-20.56-3.197-2.672,1.776-5.344,3.552-8.017,5.328-5.922,3.936-11.873,7.842-17.858,11.696,.051,7.857,.102,15.715,.154,23.572,.159,24.384-4.837,48.481-5.241,72.862-.083,5.018-.084,10.039-.081,15.061l104.951,3.595c.712-33.532,.536-67.102-1.279-100.43-.536-9.831-.984-19.95,1.864-29.318Z"/>
        </g>
        <g>
          <polygon class="cls-8" points="391.317 367.629 448.312 367.629 448.312 350.459 373.839 347.899 373.839 367.629 391.317 367.629"/>
          <path class="cls-8" d="M444.397,422.322v10.526h-71.456v-84.95l-49.477-1.935c-.162,13.77,1.129,29.456,2.491,43.164,1.697,17.074,3.456,34.142,5.279,51.202,1.171,10.958,1.197,21.942,.755,32.94h210.587v-50.948h-98.179Z"/>
          <polygon class="cls-8" points="474.675 381.491 474.675 412.475 474.675 417.953 531.851 417.953 531.851 381.491 474.675 381.491"/>
        </g>
        <path class="cls-7" d="M485.095,13.501c-.19-11.311-.623-22.618-1.276-33.912h-59.373c.448,12.137,.895,24.275,1.343,36.412,19.781-.508,39.551-1.362,59.306-2.5Z"/>
        <g>
          <path class="cls-7" d="M118.409,321.024c-2.361,3.982-4.714,8.002-6.313,12.347-.271,.735-.474,1.486-.701,2.231,16.033-.247,32.066-.494,48.099-.741,1.4-2.207,2.818-4.4,4.241-6.57,2.458-3.751,4.025-6.206,6.567-9.913-12.198-6.628-24.723-15.115-35.026-24.337-6.079,9.41-11.155,17.35-16.866,26.983Z"/>
          <path class="cls-7" d="M157.66,258.802c-6.971,11.35-14.188,22.551-21.419,33.744,10.303,9.222,22.817,17.941,35.015,24.569,8.509-12.408,16.864-23.902,25.341-36.35-12.997-7.336-25.995-14.647-38.936-21.963Z"/>
        </g>
        <path class="cls-7" d="M241.852,312.877c-3.724-2.092-35.784-26.657-44.756-31.721-11.008,16.167-22.166,31.209-32.853,47.513-1.422,2.17-2.544,3.897-3.945,6.104,10.741-.165,61.392-.842,69.238-.797,2.645-4.21,8.915-15.03,12.315-21.099Z"/>
        <path class="cls-8" d="M449.215,310.282c-14.903-1.282-75.96-14.685-103.164-44.063-2.786-3.009-5.87-5.595-9.06-8.14-1.654,5.069-2.701,9.434-3.482,14.721-3.392,22.947-9.508,47.788-10.045,70.978l125.188,4.121,.564-37.617Z"/>
        <polygon class="cls-7" points="452.882 417.953 473.961 417.953 473.961 412.475 473.961 381.491 452.882 381.491 452.882 417.953"/>
        <polygon class="cls-7" points="391.317 369.814 373.839 369.814 373.839 427.849 438.417 427.662 438.527 417.568 448.312 417.609 448.312 369.814 391.317 369.814"/>
        <path class="cls-7" d="M14.462,312.431c5.195-2.183,8.505-7.233,11.499-12.006,2.888-4.605,4.733-9.959,7.621-14.564-1.838-1.319-2.632-1.889-4.47-3.209-7.267-5.216-14.601-10.471-22.788-14.076-1.636-.72-3.32-1.347-5.026-1.913-.386,6.864,.507,13.841,1.746,20.827,.622-.017,1.243-.06,1.865-.071-.622,.012-1.243,.055-1.865,.071,1.185,6.679,2.617,13.36,3.418,19.94,.252,2.069,.325,4.153,.458,6.232,2.592,.033,5.129-.218,7.54-1.231Z"/>
        <g>
          <path class="cls-7" d="M81.788,208.072c-13.48-4.122-27.906-5.434-41.917-3.876-5.528,.615-10.956,1.76-16.314,3.169-2.077,3.373-4.072,6.783-5.986,10.228,10.45,6.453,21.563,14.391,30.907,22.276,2.238,1.889,6.766,4.535,9.98,5.399l19.113-30.472c1.406-2.241,2.811-4.483,4.217-6.724Z"/>
          <path class="cls-7" d="M17.297,219.372c-6.575,12.028-12.015,24.546-15.084,38.01-.591,2.591-.859,5.214-1.006,7.847,1.678,.566,3.335,1.193,4.944,1.913,8.054,3.604,15.269,8.859,22.418,14.076,1.808,1.319,3.616,2.638,5.424,3.958,7.842-12.709,15.685-25.418,23.527-38.127-3.162-.864-7.617-3.511-9.818-5.399-9.192-7.886-20.125-15.823-30.405-22.276Z"/>
        </g>
        <g>
          <path class="cls-7" d="M34.335,286.352c-3.226,5.553-4.81,10.403-7.698,15.008-2.328,3.711-4.597,7.24-8.044,9.808,3.533,8.029,7.742,17.022,15.341,21.227,.095,.052,.202,.07,.297,.121,2.787-1.852,5.574-3.705,8.361-5.557,8.419-5.596,16.839-11.192,25.258-16.788-10.807-7.758-22.709-16.062-33.516-23.819Z"/>
          <path class="cls-7" d="M17.786,311.491c-3.936,2.327-8.266,2.833-10.858,2.8,.322,5.025,.464,10.064,.497,15.103,.045,6.829,.089,13.658,.134,20.487,5.984-3.854,11.936-7.76,17.858-11.696,2.672-1.776,5.344-3.552,8.017-5.328-.095-.051-.203-.069-.297-.121-7.6-4.205-11.817-13.216-15.349-21.245Z"/>
        </g>
        <path class="cls-7" d="M117.361,320.616c5.711-9.634,11.752-19.067,17.831-28.478h0s0,0,0,0c7.231-11.193,14.448-22.394,21.419-33.744-11.221-6.344-21.997-13.281-31.67-21.745-12.993,26.446-25.484,53.905-49.319,69.747-2.05,1.362-4.099,2.725-6.149,4.087,.172,.123,.344,.247,.515,.37-.172-.123-.344-.247-.515-.37-8.419,5.596-16.839,11.192-25.258,16.788-2.787,1.852-5.574,3.705-8.361,5.557,6.178,3.294,13.544,3.305,20.56,3.197,17.978-.277,35.955-.554,53.933-.832,.227-.745,.43-1.496,.701-2.231,1.599-4.344,3.952-8.365,6.313-12.347Z"/>
        <g>
          <path class="cls-7" d="M275.494,332.889c-2.044-2.788-5.101-4.626-8.074-6.39-7.008-4.157-13.391-7.005-20.515-11.007-3.401,6.069-15.776,28.362-15.776,28.362,11.462,.065,45.981-.029,45.981-.029,.67-4.193,.302-8.322-1.615-10.937Z"/>
          <g>
            <path class="cls-7" d="M248.317,313.51c7.124,4.002,14.617,7.468,21.625,11.625,2.973,1.764,6.03,3.602,8.074,6.39,1.917,2.615,2.109,8.06,1.44,12.253h39.748c.008-.71-.026-1.419-.009-2.13,.282-12.185,2.111-24.34,4.268-36.463-16.029-11.756-33.637-23.773-50.198-34.532-9.045,13.747-16.855,28.413-24.948,42.857Z"/>
            <path class="cls-7" d="M334.314,255.114c-7.902-5.114-23.893-17.223-34.375-24.336-2.943,6.012-6.242,11.783-10.629,16.842-5.591,6.447-10.594,13.335-15.28,20.458,16.561,10.76,34.169,22.776,50.198,34.532,1.948-10.949,4.77-21.975,6.38-32.865,.781-5.287,2.052-9.562,3.706-14.631Z"/>
          </g>
        </g>
        <path class="cls-7" d="M491.098,19.827c.214,13.045-.158,26.694-4.018,38.959,5.029,.018,10.058,.056,15.088,.081-.06-.088-.138-.163-.197-.251,.059,.089,.137,.163,.197,.251,7.897,.04,21.787-.139,29.683-.081V17.24c-11.581,.884-29.168,1.588-40.763,2.255,.002,.11,.007,.221,.009,.331Z"/>
        <path class="cls-7" d="M502.168,64.861c-5.03-.025-10.059-.063-15.088-.081-1.674,5.32-3.937,10.405-7.205,15.025-2.638,3.729-5.804,7.049-8.956,10.355-1.31,1.373-2.62,2.746-3.929,4.119,10.525,10.552,21.729,20.407,33.419,29.651,8.91-11.593,17.472-23.438,25.448-35.696v-3.821c-9.535-4.119-17.876-10.944-23.689-19.553Z"/>
        <path class="cls-7" d="M531.851,11.246V-20.41h-42.039c.653,11.294,1.087,22.601,1.276,33.912,11.595-.668,29.182-1.371,40.763-2.255Z"/>
        <path class="cls-8" d="M476.842,163.354c.118,.119,.244,.229,.362,.348-.118-.119-.244-.229-.362-.348-4.465,5.347-8.945,10.68-13.431,16.003-6.598,7.831-13.197,15.661-19.795,23.492,4.966,3.731,9.897,7.503,14.901,11.192v0c1.703,1.255,3.363,2.558,5.07,3.808,5.932,4.342,12.052,8.705,19.104,10.783,5.649,1.664,11.621,1.776,17.509,1.877,10.321,.176,20.643,.352,30.964,.527v-84.86c-8.396-5.613-17.527-12.354-25.448-18.617-9.336,12.148-19.044,24.024-28.874,35.795Z"/>
        <path class="cls-8" d="M492.5,323.75c-21-3.5-26.5-9.625-39.25-13l-.368,37.149h78.969v-23.663c-11.385,2.211-27.844,1.432-39.351-.486Z"/>
        <path class="cls-7" d="M80.49,205.913c9.18-14.636,18.073-28.813,27.253-43.45-10.523-6.87-21.113-13.493-32.824-18.024-3.777-1.462-7.424-3.185-11.014-5.02-5.775,10.401-10.508,21.226-17.181,31.037-7.889,11.6-15.432,22.363-22.794,34.32,5.358-1.409,9.115-2.124,14.643-2.739,14.012-1.558,28.438-.246,41.917,3.876Z"/>
        <rect class="cls-8" x="452.882" y="350.459" width="53.791" height="28.471"/>
        <path class="cls-8" d="M494.894,238.868c-5.888-.1-11.86-.213-17.509-1.877-7.051-2.078-13.172-6.441-19.104-10.783-1.708-1.25-3.368-2.553-5.07-3.808v85.283c13.226,1.692,12.226,6.317,34.013,11.424,3.05,.715,9.888,2.343,13.011,2.75-.25-14.683-.987-68.276-1.235-82.919-1.369-.023-2.738-.046-4.106-.07Z"/>
        <path class="cls-3" d="M177.861,150.237c5.118,4.001,12.045,10.326,16.463,13.476,5.345,3.81,22.965,13.657,22.965,13.657l36.458,23.623,46.539,28.347s28.647,19.999,34.835,24.822c8.983,7.001,22.186,21.601,37.894,29.148,31.103,14.945,47.173,20.878,79.673,25.628,13.57,1.983,14.836,9.509,50.355,14.893,12.98,1.968,37.519-2.666,37.519-2.666"/>
        <path class="cls-3" d="M-37.375,60.625c21.868,1.761,52.063-1.198,68.957,2.504,19.007,4.165,50.757,25.446,58.597,30.999,18.893,13.382,60.659,37.285,82.326,52.221"/>
        <path class="cls-6" d="M174.858,523.876c-1.37-11.105-2.772-22.145-3.959-33.274-.291-2.784-.571-5.568-.772-8.38-.217-2.792-.369-5.664-.298-8.559,.127-5.761,.928-11.318,1.758-16.871,.848-5.547,1.891-11.047,3.049-16.525,1.168-5.477,2.48-10.919,4.065-16.323,.773-2.7,1.657-5.402,2.74-8.092,1.112-2.628,2.298-5.198,3.573-7.703,2.533-5.024,5.272-9.903,8.097-14.725,5.686-9.617,11.629-19.067,18.119-28.181,6.33-9.033,12.172-18.496,17.923-27.983,5.738-9.504,11.33-19.104,16.796-28.771,2.74-4.816,5.363-9.73,8.203-14.544,2.815-4.813,5.707-9.573,8.649-14.301,2.944-4.727,5.941-9.421,9.013-14.07,3.086-4.647,6.193-9.253,9.582-13.746,1.76-2.236,3.618-4.292,5.428-6.399,1.796-2.106,3.645-4.181,5.108-6.427,2.958-4.6,5.462-9.58,7.872-14.555,1.184-2.503,2.326-5.027,3.405-7.573l1.569-3.855c.538-1.303,1.117-2.582,1.72-3.849,2.429-5.054,5.206-9.919,8.297-14.592,3.13-4.661,6.485-9.087,9.82-13.548,3.352-4.443,6.733-8.86,10.137-13.26,3.355-4.439,6.968-8.698,10.47-13l10.575-12.894,5.288-6.447,5.098-6.583,10.279-13.151c3.456-4.364,6.919-8.718,10.509-13.002,3.609-4.333,7.525-8.294,11.325-12.348,3.811-4.032,7.654-8.079,11.297-12.182,1.662-1.978,3.15-4.33,4.52-6.662,.68-1.178,1.329-2.374,1.922-3.581,.586-1.2,1.142-2.445,1.483-3.591l2.962,.845c-.468,1.516-1.079,2.806-1.719,4.098-.644,1.282-1.333,2.525-2.054,3.748-1.47,2.44-2.972,4.805-4.906,7.073-3.777,4.179-7.629,8.162-11.491,12.177-3.838,4.023-7.782,7.946-11.327,12.132-3.589,4.207-7.087,8.526-10.572,12.849-3.481,4.327-6.935,8.68-10.372,13.046l-5.167,6.563-5.341,6.407-10.682,12.814c-3.552,4.293-7.169,8.486-10.556,12.893-3.435,4.368-6.847,8.753-10.228,13.16-3.358,4.417-6.759,8.831-9.863,13.38-3.041,4.602-5.787,9.419-8.172,14.388-.592,1.244-1.159,2.498-1.681,3.765l-1.573,3.87c-1.09,2.574-2.238,5.117-3.43,7.64-2.394,5.045-4.844,10.051-7.858,14.837-1.558,2.43-3.41,4.534-5.197,6.671-1.794,2.125-3.645,4.217-5.304,6.367-3.262,4.419-6.328,9.07-9.341,13.719-3.007,4.662-5.943,9.373-8.826,14.116-2.881,4.744-5.711,9.52-8.457,14.335-2.759,4.794-5.32,9.721-8.025,14.6-5.374,9.751-10.871,19.43-16.523,29.027-5.672,9.588-11.414,19.129-17.747,28.381-6.313,9.072-12.119,18.531-17.645,28.115-2.743,4.801-5.396,9.654-7.816,14.586-1.221,2.462-2.336,4.956-3.364,7.46-.957,2.483-1.808,5.068-2.559,7.715-2.979,10.573-5.379,21.417-7.062,32.301-.817,5.436-1.43,10.939-1.473,16.303-.012,2.665,.259,5.348,.565,8.088,.297,2.725,.675,5.463,1.064,8.197,.763,5.474,1.741,10.932,2.723,16.387,.487,2.729,1.008,5.453,1.561,8.17,.544,2.717,1.095,5.443,1.694,8.136l-6.898,1.188Z"/>
      </g>
    </g>
    <path class="cls-2" d="M422.5,0s1.688,30.312,.875,40.375c-.374,4.625-3.375,18.25-3.375,18.25"/>
  </g>
</svg>