<svg xmlns="http://www.w3.org/2000/svg" viewBox="0 0 512 512"><title>VISITAECUADOR-COM-LOGO</title><path d="M233.21,330.74,206.39,369.2H191.82l-4-38.46h13.57l1.49,26.47,17-26.47Z" fill="#fff"/><path d="M240.05,369.2H227.16l11.36-38.46h12.89Zm13.33-43.94h-13.6l2.76-9.35h13.61Z" fill="#fff"/><path d="M288.78,357q-1.75,6-8.4,9.6t-16.33,3.65a41.41,41.41,0,0,1-9.43-1,30,30,0,0,1-6.37-2.12l3-10.14h1.18c.52.43,1.12.91,1.81,1.42a16,16,0,0,0,3.1,1.66,23.65,23.65,0,0,0,4.14,1.36,23.06,23.06,0,0,0,5.26.56,16.82,16.82,0,0,0,5.84-.8,3.84,3.84,0,0,0,2.53-2.38,1.69,1.69,0,0,0-.47-2,11.22,11.22,0,0,0-3.72-1.22c-.89-.2-2.11-.43-3.67-.67a36.92,36.92,0,0,1-4.19-.87c-3.37-.91-5.66-2.33-6.85-4.26s-1.36-4.33-.51-7.21q1.63-5.55,8.21-9.23T280,329.68a38.13,38.13,0,0,1,8.37.87,27.92,27.92,0,0,1,5.89,1.87l-2.87,9.72h-1.11a18.76,18.76,0,0,0-5.61-3.06,20.8,20.8,0,0,0-7.06-1.18,16.56,16.56,0,0,0-5.47.82c-1.58.55-2.52,1.32-2.82,2.33a1.94,1.94,0,0,0,.35,2.09c.5.48,1.87,1,4.11,1.43,1.24.26,2.57.5,4,.74s2.86.54,4.28.91q4.69,1.26,6.32,4T288.78,357Z" fill="#fff"/><path d="M304.78,369.2H291.89l11.35-38.46h12.9Zm13.33-43.94h-13.6l2.76-9.35h13.6Z" fill="#fff"/><path d="M340.79,368.86a43.57,43.57,0,0,1-4.62.8,47.82,47.82,0,0,1-5.77.29q-7.5,0-10.3-2.91t-.71-10l5.3-18h-5.28l2.47-8.36h5.28l3.25-11H343.3l-3.25,11h12l-2.47,8.36h-12l-4,13.65c-.39,1.35-.73,2.52-1,3.53a6.52,6.52,0,0,0-.23,2.71,2.53,2.53,0,0,0,1.2,1.9,6.45,6.45,0,0,0,3.47.71,12.43,12.43,0,0,0,2.74-.42,14.35,14.35,0,0,0,2.49-.75h1.06Z" fill="#fff"/><path d="M372,365.12c-.84.51-1.88,1.11-3.11,1.82a26.44,26.44,0,0,1-3.39,1.68,24.28,24.28,0,0,1-4.28,1.21,25.69,25.69,0,0,1-4.58.4q-5.71,0-8.57-3.39c-1.9-2.27-2.34-5.15-1.3-8.67a15.42,15.42,0,0,1,4-6.88,19.62,19.62,0,0,1,6.81-4.22,40.45,40.45,0,0,1,9.5-2.19q5.47-.64,11.25-1l.06-.2q.94-3.18-1.41-4.4t-7.64-1.22a27.09,27.09,0,0,0-7.11,1.08q-3.92,1.08-5.67,1.66h-1.17l2.74-9.28c1.45-.34,3.78-.75,7-1.21a64.63,64.63,0,0,1,9.4-.71q11,0,14.88,3.24T391.3,343l-7.73,26.17H370.83Zm1.77-6,2.35-8c-1.77.14-3.71.32-5.8.56a32.83,32.83,0,0,0-4.86.84,9.23,9.23,0,0,0-3.44,1.69,5.74,5.74,0,0,0-1.88,2.92,7.08,7.08,0,0,0-.36,1.94,2,2,0,0,0,.65,1.44,3.68,3.68,0,0,0,1.66,1,13.42,13.42,0,0,0,3.48.32,12.88,12.88,0,0,0,4.13-.75A17.85,17.85,0,0,0,373.8,359.14Z" fill="#fff"/><path d="M184.1,403.27H161.25q-.81,3.51,1.2,5.37t7,1.86a20.36,20.36,0,0,0,6.45-1.09,28.07,28.07,0,0,0,5.38-2.34h1.1l-2.27,7.68a48,48,0,0,1-6.93,1.89,37.43,37.43,0,0,1-6.8.59q-9.37,0-13.17-4t-1.59-11.52A21.47,21.47,0,0,1,159.82,390a23.7,23.7,0,0,1,14.23-4.32q7.6,0,10.34,3.69c1.83,2.45,2.06,6,.7,10.59Zm-8.27-5.62c.54-2,.46-3.51-.22-4.52s-2.06-1.51-4.13-1.51a9.54,9.54,0,0,0-5.16,1.43,8.74,8.74,0,0,0-3.44,4.6Z" fill="#fff"/><path d="M201.82,417.23a24.94,24.94,0,0,1-7.17-.93,11.54,11.54,0,0,1-5-2.88,8.85,8.85,0,0,1-2.39-4.89,15.72,15.72,0,0,1,.69-6.91,21.47,21.47,0,0,1,3.58-7.21,21.24,21.24,0,0,1,5.55-5,23,23,0,0,1,6.64-2.76,29.31,29.31,0,0,1,7.1-.88,22.35,22.35,0,0,1,5.69.66,22,22,0,0,1,4.51,1.73l-2.42,8.17h-1.41c-.29-.32-.65-.69-1.07-1.12a8.45,8.45,0,0,0-1.63-1.25,10.83,10.83,0,0,0-12.1,1.08,13.34,13.34,0,0,0-4.1,6.61q-1.28,4.31.27,6.54t5.58,2.23a14.1,14.1,0,0,0,3.52-.41,15,15,0,0,0,2.79-1,17.63,17.63,0,0,0,2-1.12c.6-.39,1.15-.77,1.67-1.14h1.41l-2.41,8.16a35.72,35.72,0,0,1-5.42,1.69A26.25,26.25,0,0,1,201.82,417.23Z" fill="#fff"/><path d="M248.86,416.43h-10l1-3.3a42.77,42.77,0,0,1-6,3.07,15.4,15.4,0,0,1-5.8,1.05c-3.43,0-5.79-.94-7.09-2.84s-1.4-4.7-.3-8.41l5.74-19.44h10L232,401.38a38.73,38.73,0,0,0-1,3.76,5.51,5.51,0,0,0,0,2.49,2.08,2.08,0,0,0,1.17,1.43,6.83,6.83,0,0,0,2.85.46,11.71,11.71,0,0,0,3-.46,16.87,16.87,0,0,0,3.39-1.33l6.25-21.17h10Z" fill="#fff"/><path d="M276.66,413.26c-.65.4-1.46.87-2.41,1.41a22.05,22.05,0,0,1-2.63,1.31,18.89,18.89,0,0,1-3.33.94,19.26,19.26,0,0,1-3.56.31q-4.44,0-6.65-2.64t-1-6.72a12,12,0,0,1,3.1-5.35,15.39,15.39,0,0,1,5.29-3.27,30.64,30.64,0,0,1,7.38-1.7q4.26-.51,8.74-.75l0-.16c.49-1.65.12-2.78-1.1-3.41a13.68,13.68,0,0,0-5.93-1,20.94,20.94,0,0,0-5.51.84c-2,.56-3.5,1-4.41,1.29h-.91l2.13-7.21c1.13-.26,2.94-.58,5.42-.94a50.88,50.88,0,0,1,7.3-.55q8.52,0,11.56,2.52t1.45,7.88l-6,20.32h-9.9Zm1.37-4.64,1.83-6.21c-1.38.11-2.88.26-4.51.44a26.16,26.16,0,0,0-3.77.65,7.17,7.17,0,0,0-2.67,1.31,4.53,4.53,0,0,0-1.46,2.27,5.75,5.75,0,0,0-.28,1.51,1.57,1.57,0,0,0,.5,1.11,2.78,2.78,0,0,0,1.3.79,10.49,10.49,0,0,0,2.7.25,10.2,10.2,0,0,0,3.2-.58A14,14,0,0,0,278,408.62Z" fill="#fff"/><path d="M323.66,416.43h-10l.92-3.11a31.6,31.6,0,0,1-5.7,3,15.43,15.43,0,0,1-5.46.95q-5.67,0-7.84-4.2t-.06-11.33a23.62,23.62,0,0,1,3.14-6.74,23.06,23.06,0,0,1,4.63-5,19.26,19.26,0,0,1,5.48-3.1,16.73,16.73,0,0,1,5.7-1.1,13.73,13.73,0,0,1,4.42.57,24.11,24.11,0,0,1,3.24,1.45l3.75-12.71h10Zm-7.58-8.22,4.33-14.68a7.89,7.89,0,0,0-2-.61,13.05,13.05,0,0,0-2.07-.19,9.58,9.58,0,0,0-6.59,2.36,13.57,13.57,0,0,0-3.9,6.54c-.86,2.93-1,5.06-.31,6.38s2.16,2,4.48,2a10.76,10.76,0,0,0,3-.49A14.5,14.5,0,0,0,316.08,408.21Z" fill="#fff"/><path d="M367.91,401.51A21.6,21.6,0,0,1,360,413.12a22.57,22.57,0,0,1-13.82,4.24q-8.1,0-11.33-4.24t-1.05-11.61a21.52,21.52,0,0,1,7.95-11.65,22.62,22.62,0,0,1,13.79-4.23q8.16,0,11.35,4.26T367.91,401.51Zm-14.43,7.26a11.38,11.38,0,0,0,2.27-2.75,19.84,19.84,0,0,0,1.8-4.46,17,17,0,0,0,.81-4.41,6,6,0,0,0-.55-2.85,3.24,3.24,0,0,0-1.68-1.54,6.8,6.8,0,0,0-2.56-.45,9.12,9.12,0,0,0-2.67.37,7.76,7.76,0,0,0-2.59,1.49A11.29,11.29,0,0,0,346,397a20.37,20.37,0,0,0-1.88,4.54,17.46,17.46,0,0,0-.78,4.25,5.69,5.69,0,0,0,.53,2.88,3.5,3.5,0,0,0,1.68,1.52,6.61,6.61,0,0,0,2.67.48,8.89,8.89,0,0,0,2.72-.44A7.19,7.19,0,0,0,353.48,408.77Z" fill="#fff"/><path d="M397.94,395.69h-.89a7.55,7.55,0,0,0-1.95-.32c-.92-.07-1.7-.11-2.32-.11a24.77,24.77,0,0,0-3.84.27,25.27,25.27,0,0,0-3.79.9l-5.9,20h-10l8.82-29.87h10l-1.3,4.39a30.21,30.21,0,0,1,6.79-3.6,15.24,15.24,0,0,1,4.75-.89l1.18,0c.44,0,.82,0,1.14.08Z" fill="#fff"/><path d="M401.8,416.43h-7.22l2.15-7.27H404Z" fill="#fff"/><path d="M418.76,417a17.48,17.48,0,0,1-5-.65,8.09,8.09,0,0,1-3.49-2,6.18,6.18,0,0,1-1.66-3.4,10.92,10.92,0,0,1,.48-4.82,14.55,14.55,0,0,1,6.35-8.52,16.25,16.25,0,0,1,4.63-1.92,20.45,20.45,0,0,1,4.95-.61,15.25,15.25,0,0,1,4,.46,15.08,15.08,0,0,1,3.14,1.2l-1.68,5.69h-1l-.74-.78a5.76,5.76,0,0,0-1.14-.87,7,7,0,0,0-1.54-.68,7.78,7.78,0,0,0-6.89,1.43,9.29,9.29,0,0,0-2.85,4.6q-.89,3,.19,4.56c.71,1,2,1.55,3.88,1.55a9.57,9.57,0,0,0,2.45-.29,10.27,10.27,0,0,0,1.95-.67,12.57,12.57,0,0,0,1.38-.78c.42-.27.8-.54,1.16-.8h1l-1.68,5.69a27.08,27.08,0,0,1-3.78,1.18A18.89,18.89,0,0,1,418.76,417Z" fill="#fff"/><path d="M455.13,406.05a15,15,0,0,1-5.5,8.08,15.72,15.72,0,0,1-9.63,2.95q-5.64,0-7.88-2.95t-.73-8.08a14.93,14.93,0,0,1,5.53-8.11,15.72,15.72,0,0,1,9.6-2.95q5.69,0,7.9,3C455.91,399.93,456.14,402.63,455.13,406.05Zm-10,5.05a8.25,8.25,0,0,0,1.58-1.91,14.32,14.32,0,0,0,1.25-3.11,11.75,11.75,0,0,0,.56-3.07,4,4,0,0,0-.38-2,2.2,2.2,0,0,0-1.17-1.08,4.71,4.71,0,0,0-1.78-.31,6.48,6.48,0,0,0-1.86.26,5.29,5.29,0,0,0-1.8,1,7.71,7.71,0,0,0-1.6,2,13.67,13.67,0,0,0-1.31,3.16,12,12,0,0,0-.55,3,4.09,4.09,0,0,0,.37,2,2.39,2.39,0,0,0,1.17,1.05,4.68,4.68,0,0,0,1.86.34,6.35,6.35,0,0,0,1.9-.31A4.88,4.88,0,0,0,445.09,411.1Z" fill="#fff"/><path d="M481.59,401.7l-4.35,14.73h-7l3.07-10.38c.29-1,.52-1.88.68-2.59a4.05,4.05,0,0,0,.09-1.73,1.38,1.38,0,0,0-.77-1,4.49,4.49,0,0,0-1.89-.31,6.19,6.19,0,0,0-2.1.4,20.88,20.88,0,0,0-2,.85L463,416.43h-7l6.14-20.79h7l-.68,2.3a27.47,27.47,0,0,1,4.06-2.11,10,10,0,0,1,3.85-.76,6.23,6.23,0,0,1,3.51.91,4.18,4.18,0,0,1,1.76,2.7,31.2,31.2,0,0,1,4.83-2.65,10.72,10.72,0,0,1,4.14-1q3.51,0,4.74,2t.1,5.82l-4,13.53h-7l3.07-10.38c.3-1,.53-1.89.69-2.6a3.88,3.88,0,0,0,.1-1.72,1.32,1.32,0,0,0-.76-1,4.59,4.59,0,0,0-1.92-.31,6,6,0,0,0-1.78.29A17.56,17.56,0,0,0,481.59,401.7Z" fill="#fff"/><path d="M112.06,430h-.45c-10.41-.59-16.86-20.62-27.38-56-1.32-4.42-2.68-9-4.1-13.66-13.58-44.71-33.06-98.95-63.3-121.63A2.08,2.08,0,0,1,18.62,235c.41.11,10.24,2.86,27.27,15.61,26.7,20,51.21,49.71,67.85,72.38,2.55-9.46,10.52-33.26,32.57-67.3,16.63-25.66,37.87-51.83,63.13-77.76C241,145.56,279,113.42,322.25,82.44a2.08,2.08,0,0,1,2.49,3.33c-.15.11-14.72,11.46-35.68,33.58A591.17,591.17,0,0,0,213,219.9c-27.32,45.32-53.14,104.73-78.93,181.63l-.06.15C125.73,421.19,118.93,430,112.06,430ZM30,245c25.19,26.72,42,74.21,54.16,114.17,1.42,4.67,2.78,9.25,4.1,13.68,8,27,15.64,52.54,23.63,53,3.31.19,9.16-4.12,18.34-25.66C156.05,323,182,263.32,209.46,217.75A596,596,0,0,1,286.12,116.4q3.25-3.42,6.3-6.52a785.23,785.23,0,0,0-79.8,70.76c-25.06,25.71-46.13,51.62-62.62,77-22.46,34.59-31.56,61.3-33.24,70.6a2.08,2.08,0,0,1-1.58,1.66,2.11,2.11,0,0,1-2.15-.81C96.67,306.41,71.37,275,43.74,254.22A143.59,143.59,0,0,0,30,245Z" fill="#fff"/><path d="M327.21,152.24l-5.36,7.29,4.09-3.83c5.74,2.08.44,6.55-1.23,8C332.76,160.65,326.49,155.92,327.21,152.24Z" fill="#fff"/><path d="M315.33,159.4c-4.24.37-2.19,4.07-.2,5C315,162.66,317.31,160.31,315.33,159.4Z" fill="#fff"/><path d="M115,316.39c1.22-.9,2.25-2.1,3.27-1.57C117.52,313.2,116.66,312.62,115,316.39Z" fill="#fff"/><polygon points="118.23 314.82 118.63 315.86 118.59 315.01 118.23 314.82" fill="#fff"/><path d="M198.48,265.32c-.16-5,2.74-5.65,3.91-9.48l5.21,1.47c1.53-3.84-2.07-3.93-2-7.71,5.05-.56,8.3-8.09,9.73-9.24,2.5.75,1.24,3.34,1.87,4.74,2-4.54-1.63-7.79,2.6-12.11l1,.94c6.74-14.16,22.9-24.26,36.36-35.07-1.15.28-1.39-.77-2.26-1.44,14.95-10.85,35.67-16.29,47.12-32.24-9.76,3.28-29.45,2.83-36.37,14.18-5.35-2.25-8.44,5.41-12.1,1.67-14.42,5.73-16.33,14.95-27.41,23.52-2.18.51-2.85-2.09-4.72-3.63,2.71-2.81,5-6.3,8.18-8.62a35.89,35.89,0,0,0-7.09,2.31c1-4.05,8.77-6.14,7.15-10.37-6.64,8.93-21.66,16.92-24.95,26.73,4.08-1.65,7.39-5.79,11.62-8.46,2.71,0,6.09-1.1,7.35,1-6.74,13.72-18,17.33-25.62,29.36-2,2.83-5.53,5.87-7.77,4.75,1-2.17-1.78-2.22-1.32-4.32-1.93,4.9,6.26,6,.66,10.38l-5.93-5.91c5.12,7.65-6.51,6.17-5.4,13.35-3.86-.45-3.45-4.31-1.25-7.7-3.88,2.82-.13,6-2.35,8.78l-3.85-6.85c3.28,7-5.25,4.88-8.54,5.5,1.3,1.16,7.09,2.46,3.86,6.16-2,1.2-2.94-.62-4.08-.75,1.3,1.16,3,4.21,1.68,7.13-2.38-.68-2.09-3.68-4.07-5.14-1.08,2.22-1.65,4.21-4.27,4.78-.37,4.78,3.15,1.47,4.15,5-4.72,4.95-7.64-3.41-13.32-3.66-.41-6.13,1.82-12.78,1.92-16.09l-3.47,9.8c-2.18-1.94-7.7,3.77-7.39-2.35-7.58,7.86-10.9,20.46-12.22,30.42,1.44-.91,2.71-2.31,4.21-1.35-.42,5.25-3.48,3.4-5.79,3.6.35,4.18,5,5.54,7.55,8.89-6.94,5.46-4.57,7.38-12.3,11.61l4.74,1.13c-5.17,3.14,1.65,6-2.6,9.73-1.08,0-1.71-2.17-2.32-3.94.19,4.59-5.21,2.68-4.74,7.27l-4.16-4.72c-1,3.33-.63,8.63-4.66,5.72,4,7.25-1,16.84.61,24.71l-4-1.34c2.27,2.54,1,6,.42,9.54h0c-9.87-17.19-23.44-32.76-39.55-42.33-3-3-11.82-2.1-17.16-3.38,3.52,5,6,3.3,10.33,7.4,2,4.22-1.14,9.26-1.45,14.08l2.33-4.36c6.84,1.84.55,4.54,7.27,5.09L57.58,338c4.17-1.21,4,3.85,3.1,6.27l5.25-1.72c-.43,4.53-.2,7-3.88,10.38l4-2.74c-2,2.68,7.39,11.61-2.09,11.79,1.49.37,4.15.12,4.7,2.43l-4.2,2.47c2.63,2.35,5.18,5.26,3.12,7.24-1.86-1.1-4.05-.72-6.25-.31,5.35,12.94,15.74-4,21.67,7.55l-3,1.11,4.46,1.69-2.26,4.79c6,.17,7.48,4.31,8.91,9.6,1.87,4.23,2.71,7.79,6.57,12.52,2.44,3.86,17,7.71,23.83,2.52,7.08-4.57,4.87-4.54,6.07-6a21.65,21.65,0,0,0,1.84-7.24c1.31-6.55,7.5-7.7,8.39-15l-4.89-.43c5.71-4.08,12.15-21.13,24.14-22.8-2.84-5-1.1.23-4.86-.62-3.33-9.39,4.57-8.18,8.35-11.68-1.09-5.44-2.76,3.3-5.65-.15,5.58-6.61-4.42-7.67,1.42-16.15,2.95-.14,1,2.83,2.58,4.3-2.62-7.62,3.65-19,6.75-28.3,7.14-9.44,16.1-23.19,26.17-31.74l-1.39-1.11c6.75-1.88,6.63-8.45,11.8-12.18Z" fill="#fff"/><path d="M229.93,178.08l-3.24-2.87-4.9,5.77C226.17,182.36,225.94,179.29,229.93,178.08Z" fill="#fff"/><polygon points="235.1 189.42 237.24 186.1 232.31 189.08 235.1 189.42" fill="#fff"/><polygon points="166.53 241.82 167.61 241.47 172.72 228.8 166.53 241.82" fill="#fff"/><path d="M111.08,314.71c-1.61-2.11,0-4-.92-6v6.67Z" fill="#fff"/><path d="M80.49,370.3c7,3.54-.89,4.47,6.36,2.65C86.26,369.18,82.78,371.75,80.49,370.3Z" fill="#fff"/><path d="M89,384.23c.56-1.63-.35-2.82-1.27-3.92C84,381.86,87.76,382.67,89,384.23Z" fill="#fff"/><path d="M77.68,424.05a12.58,12.58,0,0,1-17.82,0,12.26,12.26,0,0,1-3.65-8.94,12.59,12.59,0,0,1,21.47-8.88,12.1,12.1,0,0,1,3.68,8.88A12.24,12.24,0,0,1,77.68,424.05ZM61.11,407.47A10.47,10.47,0,0,0,58,415.13a10.58,10.58,0,0,0,3.14,7.72,10.79,10.79,0,0,0,15.32,0,10.56,10.56,0,0,0,3.16-7.72,10.8,10.8,0,0,0-18.47-7.66Zm7.41.7a10.57,10.57,0,0,1,3.77.5,3.43,3.43,0,0,1,2.15,3.5,3,3,0,0,1-1.35,2.73,5.31,5.31,0,0,1-2,.67,3.34,3.34,0,0,1,2.37,1.35,3.81,3.81,0,0,1,.75,2.14v1c0,.32,0,.66,0,1a2,2,0,0,0,.12.72l.08.17H72.17l0-.14s0-.09,0-.15l0-.44v-1.1c0-1.59-.43-2.65-1.3-3.16a5.82,5.82,0,0,0-2.71-.45H66.12V422H63.68V408.17Zm2.63,2.18a6.24,6.24,0,0,0-3-.52H66.12v5h2.2a6.49,6.49,0,0,0,2.32-.31,2.48,2.48,0,0,0,.51-4.18Z" fill="#fff"/></svg>