<svg xmlns="http://www.w3.org/2000/svg" viewBox="0 0 120 120"><defs><style>.cls-1{fill:#fff;}.cls-2{fill:#61751b;}</style></defs><g id="Capa_1" data-name="Capa 1"><circle class="cls-1" cx="60" cy="60" r="60"/><path class="cls-2" d="M88,57.55a11.88,11.88,0,0,0-5.45-4.3V45a9.9,9.9,0,0,0-10-10h-25a9.59,9.59,0,0,0-7,2.9,9.83,9.83,0,0,0-3,7.1v8.25a11.75,11.75,0,0,0-5.4,4.3,11.23,11.23,0,0,0-2.1,6.7V85h7.5V77.5h45V85H90V64.25A11.19,11.19,0,0,0,88,57.55ZM45,42.5H75v10H45ZM82.5,70h-45V64.25A4.27,4.27,0,0,1,41.75,60h36.5a4.27,4.27,0,0,1,4.25,4.25Z"/></g></svg>